<svg width="160" height="56" viewBox="0 0 160 56" fill="none" xmlns="http://www.w3.org/2000/svg">
<path d="M71.3472 0.0136719V19.927H72.0166V1.39252H81.9233C82.7526 1.39252 83.427 2.08693 83.427 2.94621V23.6988C84.5611 23.1643 86.0249 22.1951 86.6294 21.5656V3.0811C86.6294 1.38752 85.3005 0.0136719 83.6618 0.0136719H71.3522H71.3472Z" fill="white"/>
<path d="M74.3998 16.5498H73.1909C73.061 16.5498 72.9561 16.6547 72.9561 16.7846C72.9561 16.9145 73.061 17.0194 73.1909 17.0194H74.3998C74.5297 17.0194 74.6346 16.9145 74.6346 16.7846C74.6346 16.6547 74.5297 16.5498 74.3998 16.5498Z" fill="white"/>
<path d="M74.5095 13.837C74.4195 13.7471 74.2697 13.7471 74.1797 13.837C74.0898 13.9269 74.0898 14.0768 74.1797 14.1667L75.034 15.021C75.124 15.1109 75.2738 15.1109 75.3638 15.021C75.4537 14.9311 75.4537 14.7812 75.3638 14.6913L74.5095 13.837Z" fill="white"/>
<path d="M80.0747 13.837C79.9848 13.7471 79.8349 13.7471 79.745 13.837L78.8907 14.6913C78.8008 14.7812 78.8008 14.9311 78.8907 15.021C78.9806 15.1109 79.1305 15.1109 79.2204 15.021L80.0747 14.1667C80.1646 14.0768 80.1646 13.9269 80.0747 13.837Z" fill="white"/>
<path d="M77.1269 12.6133C76.997 12.6133 76.8921 12.7182 76.8921 12.8481V14.0571C76.8921 14.187 76.997 14.2919 77.1269 14.2919C77.2568 14.2919 77.3617 14.187 77.3617 14.0571V12.8481C77.3617 12.7182 77.2568 12.6133 77.1269 12.6133Z" fill="white"/>
<path d="M81.0595 16.5498H79.8505C79.7206 16.5498 79.6157 16.6547 79.6157 16.7846C79.6157 16.9145 79.7206 17.0194 79.8505 17.0194H81.0595C81.1894 17.0194 81.2943 16.9145 81.2943 16.7846C81.2943 16.6547 81.1894 16.5498 81.0595 16.5498Z" fill="white"/>
<path d="M82.4426 24.0188C82.5025 23.5792 82.5425 23.0446 82.5425 22.7948V20.4368C82.5425 20.0122 82.1978 19.6674 81.7731 19.6674C81.3485 19.6674 81.0038 20.0122 81.0038 20.4368V20.167C81.0038 19.7424 80.6591 19.3977 80.2344 19.3977C79.8098 19.3977 79.4651 19.7424 79.4651 20.167V19.8973C79.4651 19.4726 79.1203 19.1279 78.6957 19.1279C78.2711 19.1279 77.9263 19.4726 77.9263 19.8973V16.3153C77.9263 15.8906 77.5816 15.5459 77.157 15.5459C76.7323 15.5459 76.3876 15.8906 76.3876 16.3153V20.8415C76.3876 21.346 76.1428 21.371 75.938 21.1662L75.6582 20.8864C74.4393 19.6674 73.2153 20.6166 73.515 20.9164L74.5142 21.9156C75.0138 22.4151 75.6632 22.9897 76.6224 24.1637C76.7823 24.3585 76.8922 24.6083 76.9671 24.8731C77.162 24.8831 77.3518 24.8881 77.5467 24.8881C79.2702 24.8881 80.9188 24.5783 82.4426 24.0188Z" fill="white"/>
<path d="M82.4432 24.4282C80.9195 24.9877 79.2659 25.2975 77.5473 25.2975C77.3525 25.2975 77.1627 25.2925 76.9678 25.2825C69.569 24.9877 63.634 19.0327 63.3592 11.6289C63.3542 11.8088 63.3442 11.9836 63.3442 12.1635C63.3442 20.0069 69.7039 26.3666 77.5473 26.3666C80.9994 26.3666 84.1618 25.1326 86.6247 23.0843V22.0052C85.3908 23.0343 83.9769 23.8587 82.4432 24.4232V24.4282Z" fill="white"/>
<path d="M78.0513 5.04418L77.7466 4.81937L77.9064 3.09082L78.391 3.44552C78.5309 3.55043 78.6109 3.72029 78.5959 3.89515L78.5109 4.83935C78.491 5.05917 78.2362 5.17407 78.0563 5.04418H78.0513Z" fill="white"/>
<path d="M80.0548 4.6695L79.5702 4.3148C79.4303 4.20989 79.2404 4.18991 79.0806 4.25985L77.7417 4.82437L78.2213 5.17408C78.3662 5.27899 78.556 5.30397 78.7209 5.23403L80.0548 4.6745V4.6695Z" fill="white"/>
<path d="M77.1428 5.14458L76.838 5.36939L75.2344 4.69995L75.719 4.34524C75.8589 4.24033 76.0487 4.22035 76.2086 4.2853L77.0828 4.64999C77.2877 4.73492 77.3176 5.00969 77.1428 5.14458Z" fill="white"/>
<path d="M77.3872 3.11632L76.9026 3.47103C76.7627 3.57594 76.6828 3.7458 76.7027 3.92065L76.8376 5.36444L77.3172 5.00974C77.4621 4.90482 77.537 4.72997 77.5221 4.55012L77.3872 3.11133V3.11632Z" fill="white"/>
<path d="M76.9379 6.02345L77.0578 6.38315L75.9287 7.70204L75.7389 7.13252C75.6839 6.96766 75.7189 6.78281 75.8338 6.64792L76.4533 5.92853C76.5981 5.75867 76.8679 5.81362 76.9379 6.02345Z" fill="white"/>
<path d="M75.0841 5.16895L75.2839 5.75845C75.3339 5.91332 75.4638 6.02823 75.6186 6.0632L77.0574 6.38293L76.8676 5.8184C76.8126 5.64854 76.6678 5.52365 76.4929 5.48368L75.0791 5.16895H75.0841Z" fill="white"/>
<path d="M77.6971 6.50342H78.0768L78.966 7.99217H78.3665C78.1917 7.99217 78.0268 7.89725 77.9369 7.74737L77.4523 6.93306C77.3374 6.74322 77.4773 6.50342 77.6971 6.50342Z" fill="white"/>
<path d="M76.2979 7.9868H76.8973C77.0722 7.9868 77.2371 7.89688 77.327 7.74201L78.0764 6.49805H77.4819C77.302 6.49805 77.1371 6.59297 77.0472 6.74284L76.3028 7.9818L76.2979 7.9868Z" fill="white"/>
<path d="M78.4167 5.91355L78.5316 5.55385L80.2202 5.15918L80.0354 5.7287C79.9804 5.89856 79.8455 6.02346 79.6707 6.06342L78.7464 6.27824C78.5316 6.3282 78.3418 6.12337 78.4117 5.91355H78.4167Z" fill="white"/>
<path d="M79.4055 7.7024L79.5904 7.13288C79.6453 6.96302 79.6054 6.78317 79.4905 6.64828L78.5363 5.5542L78.3564 6.11873C78.3014 6.28858 78.3414 6.47343 78.4563 6.60831L79.4105 7.6974L79.4055 7.7024Z" fill="white"/>
<path d="M78.377 5.86867C78.377 6.01355 78.2621 6.12845 78.1172 6.12845C77.9723 6.12845 77.8574 6.01355 77.8574 5.86867C77.8574 5.72379 77.9723 5.60889 78.1172 5.60889C78.2621 5.60889 78.377 5.72379 78.377 5.86867Z" fill="white"/>
<path d="M78.2017 5.34426C78.2017 5.48913 78.0868 5.60404 77.9419 5.60404C77.797 5.60404 77.6821 5.48913 77.6821 5.34426C77.6821 5.19938 77.797 5.08447 77.9419 5.08447C78.0868 5.08447 78.2017 5.19938 78.2017 5.34426Z" fill="white"/>
<path d="M77.6421 5.34426C77.6421 5.48913 77.5272 5.60404 77.3823 5.60404C77.2375 5.60404 77.1226 5.48913 77.1226 5.34426C77.1226 5.19938 77.2375 5.08447 77.3823 5.08447C77.5272 5.08447 77.6421 5.19938 77.6421 5.34426Z" fill="white"/>
<path d="M77.437 5.86867C77.437 6.01355 77.3221 6.12845 77.1773 6.12845C77.0324 6.12845 76.9175 6.01355 76.9175 5.86867C76.9175 5.72379 77.0324 5.60889 77.1773 5.60889C77.3221 5.60889 77.437 5.72379 77.437 5.86867Z" fill="white"/>
<path d="M77.9121 6.20803C77.9121 6.35291 77.7972 6.46781 77.6524 6.46781C77.5075 6.46781 77.3926 6.35291 77.3926 6.20803C77.3926 6.06315 77.5075 5.94824 77.6524 5.94824C77.7972 5.94824 77.9121 6.06315 77.9121 6.20803Z" fill="white"/>
<path d="M75.2186 8.55143V8.82121C75.2186 8.93111 75.1736 9.00105 75.0737 9.03103L75.0937 9.071C75.2436 9.02603 75.3185 8.93111 75.3185 8.78624V8.37158L75.1936 8.40156L75.2136 8.54644L75.2186 8.55143Z" fill="white"/>
<path d="M75.454 8.28122V8.83576H75.5589V8.27623L75.5689 8.13135L75.439 8.14633L75.454 8.28122Z" fill="white"/>
<path d="M77.4614 8.30181V8.64652C77.4614 8.70647 77.4364 8.73644 77.3864 8.73644H77.2166H77.1666C77.1366 8.65151 77.0917 8.56659 77.0367 8.49165C76.9618 8.39673 76.8918 8.34677 76.8219 8.34677C76.727 8.34677 76.657 8.4317 76.647 8.57658L76.7569 8.56159C76.747 8.53162 76.742 8.50664 76.742 8.48665C76.742 8.44669 76.7569 8.4267 76.7869 8.4267C76.8319 8.4267 76.8818 8.46667 76.9418 8.5466C76.9867 8.60655 77.0217 8.6715 77.0467 8.73145H76.0775V8.35676H75.9226C75.8477 8.35676 75.7878 8.38174 75.7428 8.4317C75.6978 8.48166 75.6729 8.5416 75.6729 8.62154C75.6729 8.68648 75.6928 8.73644 75.7328 8.77641C75.7678 8.81138 75.8127 8.83136 75.8727 8.83136H75.9726C75.9676 8.92629 75.9176 8.99123 75.8277 9.03119L75.8477 9.07116C75.9776 9.03619 76.0525 8.95626 76.0725 8.83136H76.5871H77.2166H77.4114C77.5063 8.83136 77.5663 8.77142 77.5663 8.6715V8.12695L77.4414 8.15693L77.4614 8.30181ZM75.9626 8.73644H75.8727C75.8077 8.73644 75.7728 8.69148 75.7728 8.60655C75.7728 8.49165 75.8227 8.4267 75.9077 8.4267H75.9626V8.73644Z" fill="white"/>
<path d="M77.6865 8.14633L77.7015 8.28122V8.83576H77.8064V8.27623L77.8164 8.13135L77.6865 8.14633Z" fill="white"/>
<path d="M78.3921 8.60108C78.4271 8.60108 78.457 8.57111 78.457 8.53614C78.457 8.49617 78.4271 8.47119 78.3921 8.47119C78.3571 8.47119 78.3271 8.50116 78.3271 8.53614C78.3271 8.5761 78.3571 8.60108 78.3921 8.60108Z" fill="white"/>
<path d="M79.6955 8.36153H79.5006L79.5955 8.26161L79.7454 8.13672H79.5955C79.5306 8.22165 79.4307 8.32656 79.3058 8.45645H79.6755C79.7954 8.45645 79.8553 8.49642 79.8553 8.58135V8.74121H78.7862C78.7363 8.74121 78.7113 8.70624 78.7113 8.6313V8.38151L78.5864 8.41149L78.6064 8.55637V8.7462C78.6064 8.82614 78.5864 8.89108 78.5464 8.94604C78.5064 8.991 78.4615 9.01598 78.4065 9.01598C78.2766 9.01598 78.1967 8.91107 78.1967 8.74121V8.54638H78.0918V8.7462C78.0918 8.85112 78.1168 8.93105 78.1617 8.991C78.2117 9.05595 78.2916 9.08592 78.3915 9.08592C78.5664 9.08592 78.6813 8.991 78.7063 8.84113C78.7263 8.84612 78.7413 8.84612 78.7612 8.84612H78.8312H79.9552V8.57135C79.9552 8.44646 79.8603 8.37152 79.6955 8.37152V8.36153Z" fill="white"/>
<path d="M80.1102 8.40655L80.1302 8.55143V8.82121C80.1302 8.93111 80.0803 9.00105 79.9854 9.03103L80.0053 9.071C80.1552 9.02603 80.2301 8.93111 80.2301 8.78624V8.37158L80.1053 8.40156L80.1102 8.40655Z" fill="white"/>
<g style="mix-blend-mode:screen">
<path d="M79.0305 4.2902L77.7915 4.81476C77.7915 4.81476 77.9214 4.86472 78.7907 4.50003C79.0355 4.40011 79.3002 4.33516 79.4951 4.44008C79.8448 4.62492 80.0346 4.66988 80.0346 4.66988C79.7249 4.44507 79.6799 4.4101 79.615 4.36514C79.575 4.33516 79.3552 4.13533 79.0355 4.2952L79.0305 4.2902Z" fill="white"/>
</g>
<g style="mix-blend-mode:screen">
<path d="M75.6991 6.07382L77.018 6.35859C77.018 6.35859 76.9431 6.24368 76.0188 6.03885C75.7641 5.9839 75.5093 5.87899 75.4093 5.68415C75.2295 5.33444 75.0996 5.18457 75.0996 5.18457C75.2245 5.54427 75.2395 5.59922 75.2645 5.67916C75.2795 5.72412 75.3444 6.01887 75.6991 6.07382Z" fill="white"/>
</g>
<g style="mix-blend-mode:screen">
<path d="M76.7123 3.98052L76.8472 5.3194C76.8472 5.3194 76.9321 5.20949 76.8422 4.27028C76.8172 4.0105 76.8372 3.73573 76.9921 3.58086C77.2718 3.30109 77.3718 3.13623 77.3718 3.13623C77.067 3.36604 77.0221 3.40101 76.9521 3.44597C76.9121 3.47095 76.6574 3.62582 76.7123 3.98052Z" fill="white"/>
</g>
<g style="mix-blend-mode:screen">
<path d="M77.3475 7.69224L78.0369 6.5332C78.0369 6.5332 77.907 6.56818 77.4174 7.38249C77.2826 7.60731 77.1027 7.81713 76.8879 7.8471C76.4982 7.90705 76.3184 7.98199 76.3184 7.98199C76.698 7.98199 76.758 7.98199 76.8379 7.98199C76.8829 7.98199 77.1826 8.01696 77.3475 7.69723V7.69224Z" fill="white"/>
</g>
<g style="mix-blend-mode:screen">
<path d="M79.4459 6.61816L78.5566 5.604C78.5566 5.604 78.5516 5.73889 79.1711 6.45329C79.341 6.65313 79.4859 6.88293 79.4509 7.10275C79.3859 7.49242 79.4009 7.68726 79.4009 7.68726C79.5158 7.32256 79.5358 7.26761 79.5608 7.19267C79.5758 7.14771 79.7007 6.87294 79.4459 6.61816Z" fill="white"/>
</g>
<path d="M5.40353 42.141C5.70254 42.4176 5.70254 42.739 5.70254 43.5463H5.47828C5.40353 42.6194 4.77561 42.3428 3.94585 42.3428C2.76475 42.3428 2.24148 43.1427 2.24148 44.4209C2.24148 45.602 2.64515 46.3496 3.57208 46.529H6.5024V47.1569H0.537109V46.529H2.09197C1.31454 46.0505 0.888449 45.4002 0.888449 44.4209C0.888449 42.9184 1.92004 41.7373 3.72159 41.7373C4.52144 41.7373 5.12694 41.8644 5.40353 42.141Z" fill="white"/>
<path d="M10.9724 36.5489C9.99316 36.5489 9.86608 36.9975 9.86608 37.6777V46.5285H12.0713V47.1564H8.01221V36.3022H10.9724V36.5564V36.5489Z" fill="white"/>
<path d="M16.0562 36.5045C15.331 36.5045 15.204 36.9306 15.204 37.6108V40.3692L15.2787 40.2944C15.6525 39.9207 16.3851 39.7712 17.4615 39.7712H23.7258C24.9293 39.7712 25.9086 40.1748 26.5814 40.8476C27.2616 41.5279 27.6055 42.4548 27.6055 43.4565C27.6055 44.7572 27 45.8635 25.9759 46.5363H29.8107V47.1642H11.0552V46.5363H13.3127V36.2354H16.2954V36.5119H16.0412L16.0562 36.5045ZM17.2597 40.5636C16.1832 40.5636 15.331 40.9373 15.204 42.1408V46.5288H23.524C25.0564 46.4541 25.7516 45.1534 25.7516 43.449C25.7516 41.7446 24.9966 40.5636 23.3969 40.5636H17.2522H17.2597Z" fill="white"/>
<path d="M37.3681 40.1147C37.7942 40.4885 37.7942 40.9445 37.7942 42.1181H37.4653C37.3681 40.8174 36.516 40.3913 35.3349 40.3913C33.6529 40.3913 32.9278 41.5425 32.9278 43.3515C32.9278 44.1813 33.0773 44.9288 33.4062 45.5044C33.7352 46.08 34.236 46.4314 34.9387 46.536H39.9995V47.1639H28.8164V46.536H32.7559C31.6495 45.8558 31.0515 44.7345 31.0515 43.3515C31.0515 42.3199 31.4029 41.3706 32.1055 40.6903C32.7858 40.0101 33.7576 39.584 34.991 39.584C36.2244 39.584 36.972 39.7335 37.3756 40.1073L37.3681 40.1147Z" fill="white"/>
<path d="M44.6633 36.5788C43.6841 36.5788 43.557 37.0049 43.557 37.6852V43.6804C43.557 44.7568 43.2281 45.609 42.6525 46.2145C42.0769 46.8125 41.3219 47.1639 40.4249 47.1639H38.9971V46.5359H39.4232C39.9464 46.5359 40.5295 46.364 40.9257 45.9603C41.3294 45.5567 41.606 44.9362 41.6807 44.0018V36.3022H44.6633V36.5788Z" fill="white"/>
<path d="M48.7449 36.5489C47.7656 36.5489 47.6684 36.9975 47.6684 37.6777V47.1564H45.7847V36.3022L48.7449 36.3247V36.5489Z" fill="white"/>
<path d="M62.9852 40.0407C62.2601 40.0407 62.133 40.4892 62.133 41.1695V46.5367H64.3606V47.1647H58.1935C57.1918 47.1422 56.1602 46.761 55.3604 46.1106C54.5605 45.4603 54.0073 44.5558 54.0073 43.4569C54.0073 41.2218 56.063 39.794 59.2998 39.794H63.2393V40.0482H62.9852V40.0407ZM60.2492 40.6911C59.2699 40.392 58.1711 40.4369 57.289 40.9153C56.4144 41.3937 55.8089 42.2459 55.8089 43.4719C55.8089 44.3465 56.063 45.0791 56.4891 45.6247C56.8928 46.1779 57.4908 46.5293 58.1935 46.5293H60.2492V40.6911ZM57.9692 37.4542C57.9692 37.9551 57.5656 38.3812 57.0423 38.3812C56.519 38.3812 56.1154 37.9551 56.1154 37.4542C56.1154 36.931 56.519 36.5049 57.0423 36.5049C57.5656 36.5049 57.9692 36.931 57.9692 37.4542ZM60.324 37.4542C60.324 37.9551 59.8979 38.3812 59.3746 38.3812C58.8513 38.3812 58.4476 37.9551 58.4476 37.4542C58.4476 36.931 58.8737 36.5049 59.3746 36.5049C59.8979 36.5049 60.324 36.931 60.324 37.4542Z" fill="white"/>
<path d="M68.7487 40.0852C67.9713 40.0852 67.8965 40.5337 67.8965 41.214V43.5463C67.8965 44.6526 67.4705 45.5497 66.865 46.1552C66.2669 46.7831 65.4895 47.1569 64.7569 47.1569H63.3516V46.5289H63.7552C64.2785 46.5289 64.8317 46.3794 65.2578 45.9758C65.6614 45.5721 65.938 44.9516 66.0128 44.0172V39.8311H68.9954V40.0852H68.7412H68.7487ZM67.8965 49.534C67.8965 50.0573 67.4705 50.4834 66.9472 50.4834C66.4239 50.4834 66.0202 50.0573 66.0202 49.534C66.0202 49.0107 66.4463 48.6071 66.9472 48.6071C67.4705 48.6071 67.8965 49.0332 67.8965 49.534Z" fill="white"/>
<path d="M73.0847 36.5489C72.1055 36.5489 72.0083 36.9975 72.0083 37.6777V47.1564H70.1245V36.3022L73.0847 36.3247V36.5489Z" fill="white"/>
<path d="M82.0631 39.9879C81.338 39.9879 81.2109 40.414 81.2109 41.0942V46.5362H83.4162V47.1641H81.1586V47.5155C81.1586 48.8461 80.5606 49.6459 79.8579 50.1244C79.1328 50.6252 78.3255 50.8046 77.9293 50.9018C77.8022 50.9242 77.705 50.9242 77.6751 50.8794C77.6228 50.8569 77.6527 50.8046 77.7275 50.7523C78.4526 50.3486 78.8562 49.773 79.0805 49.1451C79.3047 48.5396 79.3571 47.8444 79.3571 47.1641H78.0564C76.5763 47.1641 75.3503 46.7605 74.4682 46.1101C73.5936 45.4598 73.0928 44.5553 73.0928 43.4564C73.0928 41.1764 75.1485 39.7188 78.3853 39.7188H82.3248V39.9953H82.0706L82.0631 39.9879ZM74.8943 43.4489C74.8943 45.3551 76.0978 46.4316 77.705 46.611H79.3346V40.6158C78.931 40.4887 78.5348 40.4439 78.1087 40.4439C76.2249 40.4439 74.9018 41.4455 74.9018 43.4489H74.8943Z" fill="white"/>
<path d="M87.8034 40.0852C87.026 40.0852 86.9512 40.5337 86.9512 41.214V43.5463C86.9512 44.6526 86.5251 45.5497 85.9196 46.1552C85.3216 46.7831 84.5442 47.1569 83.8116 47.1569H82.4062V46.5289H82.8099C83.3332 46.5289 83.8864 46.3794 84.3125 45.9758C84.7161 45.5721 84.9927 44.9516 85.0675 44.0172V39.8311H88.0501V40.0852H87.7959H87.8034ZM86.9512 49.534C86.9512 50.0573 86.5251 50.4834 86.0019 50.4834C85.4786 50.4834 85.0749 50.0573 85.0749 49.534C85.0749 49.0107 85.501 48.6071 86.0019 48.6071C86.5251 48.6071 86.9512 49.0332 86.9512 49.534Z" fill="white"/>
<path d="M5.02204 53.2789V54.0115H4.02034L3.75871 54.5647L1.86746 53.5107L1.91978 53.0397C1.7927 53.0921 1.68058 53.1593 1.57592 53.2416C1.47127 53.3238 1.37409 53.3986 1.27691 53.4658L1.38156 54.8338C1.38156 54.8338 1.38156 54.9086 1.38904 54.9459V55.0132C1.38904 55.1627 1.35166 55.3272 1.26943 55.4916C1.20216 55.6337 1.14983 55.7383 1.10498 55.8131L0.992849 56L0.820918 54.2732C0.798492 54.0788 0.791016 53.9592 0.791016 53.9144C0.791016 53.8022 0.843344 53.6153 0.955473 53.3462C1.09003 53.0098 1.26944 52.7706 1.50117 52.6211C1.79271 52.4342 2.26365 52.2698 2.90652 52.1203C3.21301 52.053 3.46717 52.0156 3.66153 52.0156C3.84094 52.0156 3.96802 52.0455 4.02782 52.1128C4.0951 52.1801 4.125 52.3146 4.125 52.509V53.2939H5.01456L5.02204 53.2789ZM3.70638 53.6976V52.9276C3.70638 52.808 3.68396 52.7333 3.64658 52.6959C3.6092 52.6585 3.52697 52.6361 3.39989 52.6361C3.01865 52.6361 2.64489 52.7258 2.2786 52.8977L3.69891 53.6976H3.70638Z" fill="white"/>
<path d="M7.41356 53.2788V54.0114H4.90186V53.2788H7.41356Z" fill="white"/>
<path d="M9.73826 53.2788V54.0114H7.22656V53.2788H9.73826Z" fill="white"/>
<path d="M12.0571 53.2788V54.0114H9.54541V53.2788H12.0571Z" fill="white"/>
<path d="M11.8698 53.2792H13.1107C13.0957 52.9802 12.9985 52.7036 12.8191 52.4569L13.2228 51.9037C13.462 52.1878 13.5816 52.4868 13.5816 52.8008C13.5816 52.9877 13.5293 53.2343 13.4172 53.5259C13.3873 53.6231 13.3275 53.78 13.2303 54.0043H11.8623V53.2717L11.8698 53.2792ZM13.5741 50.8198L13.4321 51.1786C13.0584 51.231 12.7668 51.388 12.5426 51.6421C12.565 51.4627 12.6397 51.3057 12.7668 51.1637C12.5725 51.1263 12.4753 51.0067 12.4753 50.8198C12.4753 50.6778 12.5575 50.5133 12.7145 50.3265C12.8416 50.1695 13.0135 50.0947 13.2378 50.0947C13.3723 50.0947 13.4396 50.1396 13.4396 50.2293C13.4396 50.2966 13.4022 50.3863 13.3349 50.4909C13.2677 50.4685 13.2079 50.461 13.1555 50.461C12.9686 50.461 12.8117 50.5358 12.6921 50.6853C12.8416 50.8198 13.0285 50.8871 13.2527 50.8871C13.3499 50.8871 13.4545 50.8647 13.5741 50.8198Z" fill="white"/>
<path d="M14.2913 54.2657C14.3212 53.8695 14.3362 53.5257 14.3362 53.2565C14.3362 52.8903 14.3212 52.3894 14.2839 51.769C14.254 51.2532 14.2166 50.8719 14.1792 50.6103L14.7997 49.8403L14.9492 50.7598L14.8071 50.9243V51.014C14.8594 51.5746 14.8894 52.0381 14.8894 52.4044C14.8894 52.7707 14.852 53.0921 14.7697 53.3762C14.7099 53.5855 14.553 53.8845 14.2913 54.2732V54.2657Z" fill="white"/>
<path d="M16.3923 51.7165C16.9978 51.9781 17.2969 52.3593 17.2969 52.8602C17.2969 53.0545 17.252 53.2713 17.1623 53.5105L16.9679 54.0039H15.4131L15.5775 53.2713H16.8409C16.8259 53.0172 16.7661 52.8228 16.6615 52.6733C16.5568 52.5313 16.3699 52.3967 16.1083 52.2846L16.3923 51.709V51.7165Z" fill="white"/>
<path d="M22.1851 54.0119L22.1477 54.124L22.0356 54.4978C21.9982 54.6323 21.9309 54.7818 21.8487 54.9538C21.2955 55.3126 20.8022 55.4995 20.3686 55.4995C20.0696 55.4995 19.8154 55.3948 19.5986 55.178C19.3893 54.9687 19.2847 54.7071 19.2847 54.4006C19.2847 53.982 19.4342 53.4363 19.7407 52.771C19.6435 53.2195 19.5986 53.5783 19.5986 53.84C19.5986 54.1315 19.6734 54.3632 19.8229 54.5352C19.9724 54.7071 20.1667 54.7968 20.4134 54.7968C20.6227 54.7968 20.847 54.7445 21.0862 54.6473C21.3254 54.5501 21.5347 54.4156 21.7067 54.2511L21.6768 50.4835L22.2823 49.8481V53.2868H23.1344V54.0194H22.1776L22.1851 54.0119Z" fill="white"/>
<path d="M25.5415 53.2788V54.0114H23.0298V53.2788H25.5415Z" fill="white"/>
<path d="M30.4747 54.0115H26.7072L26.6324 53.7573L26.4082 54.0115H25.3467V53.2789H26.4979L26.3558 52.793L26.8193 52.3669L27.0884 53.2789L28.6807 52.2623C28.7778 52.2025 28.8974 52.1277 29.0544 52.038C29.346 51.8586 29.5627 51.7764 29.7123 51.7764C29.929 51.7764 30.1682 51.9109 30.4374 52.1726C30.6691 52.4043 30.7887 52.6734 30.7887 52.9799C30.7887 53.0995 30.699 53.3985 30.5121 53.8769L30.4897 53.9442L30.4598 54.0115H30.4747ZM30.3925 53.2789C30.3252 53.0247 30.1981 52.8005 30.0113 52.6136C29.8244 52.4267 29.6375 52.337 29.4506 52.337C29.4058 52.337 29.3684 52.337 29.331 52.352C29.2488 52.3744 29.0768 52.4641 28.8227 52.6136L28.4714 52.8229L28.2546 52.9649L27.7388 53.2789H30.385H30.3925Z" fill="white"/>
<path d="M31.4466 54.2657C31.4765 53.8695 31.4915 53.5257 31.4915 53.2565C31.4915 52.8903 31.4765 52.3894 31.4391 51.769C31.4092 51.2532 31.3718 50.8719 31.3345 50.6103L31.9549 49.8403L32.1044 50.7598L31.9624 50.9243V51.014C32.0147 51.5746 32.0446 52.0381 32.0446 52.4044C32.0446 52.7707 32.0073 53.0921 31.925 53.3762C31.8652 53.5855 31.7082 53.8845 31.4466 54.2732V54.2657Z" fill="white"/>
<path d="M34.5121 53.279H35.3867V54.0115H34.4822C34.4374 54.2433 34.3552 54.4825 34.2206 54.7217C33.9365 55.2674 33.645 55.5365 33.3609 55.5365C33.1591 55.5365 32.8676 55.2898 32.4863 54.8039C32.6732 54.8712 32.8377 54.9086 32.9797 54.9086C33.2114 54.9086 33.4282 54.8263 33.63 54.6694C33.8319 54.5124 33.9739 54.2881 34.0786 54.0115H33.5478C33.3609 54.0115 33.2339 54.0115 33.1666 53.9966C33.032 53.9742 32.9199 53.9144 32.8302 53.8097C32.7405 53.7051 32.6956 53.578 32.6956 53.4359C32.6956 53.2266 32.7554 52.9949 32.8676 52.7407C32.9797 52.4866 33.1292 52.2698 33.3011 52.0829C33.4058 51.9708 33.5254 51.9185 33.6525 51.9185C33.8394 51.9185 34.0113 52.053 34.1832 52.3221C34.3552 52.5912 34.4598 52.9127 34.5047 53.279H34.5121ZM34.0337 53.279C33.9739 52.8005 33.8319 52.5688 33.6076 52.5688C33.5104 52.5688 33.4207 52.6211 33.331 52.7258C33.2413 52.8304 33.204 52.9351 33.204 53.0547C33.204 53.2117 33.3011 53.2864 33.4955 53.2864H34.0412L34.0337 53.279Z" fill="white"/>
<path d="M35.2736 53.2792H36.5145C36.5145 52.9877 36.4098 52.7111 36.223 52.4569L36.6266 51.9038C36.8658 52.1878 36.9854 52.4868 36.9854 52.8008C36.9854 52.9802 36.9331 53.2269 36.821 53.5259C36.7911 53.6231 36.7313 53.7801 36.6341 54.0043H35.2661V53.2717L35.2736 53.2792ZM37.0004 51.0665L36.6117 51.4104L36.3052 51.1338L35.9912 51.4104L35.5203 50.9619L35.909 50.6255L36.2005 50.8946L36.522 50.6255L37.0004 51.0665Z" fill="white"/>
<line x1="102.488" y1="1.91237e-08" x2="102.488" y2="56" stroke="#0E8883" stroke-width="0.875"/>
<path d="M117.269 45.9534L117.276 48.2433C117.276 49.1563 116.87 49.7423 116.05 50.0047L116.237 50.3606C117.506 49.9939 118.146 49.1923 118.146 47.9593V44.4795L117.089 44.7275L117.265 45.9498L117.269 45.9534Z" fill="white"/>
<path d="M119.264 43.6707V48.3439H120.145V43.6599L120.242 42.4448L119.131 42.5383L119.264 43.6707Z" fill="white"/>
<path d="M136.17 43.8719V46.7765C136.17 47.2798 135.958 47.5242 135.523 47.5242H134.074H133.647C133.388 46.7945 133.017 46.1079 132.547 45.4788C131.935 44.6772 131.321 44.2745 130.717 44.2745C129.937 44.2745 129.333 44.9935 129.236 46.1906L130.16 46.0827C130.077 45.8347 130.034 45.6334 130.034 45.4716C130.034 45.1337 130.167 44.9611 130.433 44.9611C130.796 44.9611 131.231 45.2991 131.72 45.9821C132.101 46.5033 132.392 47.0246 132.608 47.5242H124.462V44.3752H123.164C122.542 44.3752 122.039 44.5837 121.658 44.9971C121.277 45.4069 121.09 45.9389 121.09 46.604C121.09 47.1504 121.259 47.5818 121.586 47.9017C121.881 48.2037 122.269 48.3475 122.751 48.3475H123.592C123.549 49.1527 123.15 49.7099 122.384 50.0083L122.571 50.3642C123.664 50.073 124.293 49.3971 124.444 48.3475H128.772H134.071H135.732C136.548 48.3475 137.054 47.837 137.054 46.9886V42.416L136.016 42.6712L136.166 43.8755L136.17 43.8719ZM123.57 47.5242H122.826C122.276 47.5242 121.999 47.1576 121.999 46.4386C121.999 45.4896 122.416 44.9036 123.117 44.9036H123.57V47.5242Z" fill="white"/>
<path d="M138.043 42.5383L138.176 43.6707V48.3439H139.057V43.6599L139.154 42.4448L138.043 42.5383Z" fill="white"/>
<path d="M144 46.3985C144.309 46.3985 144.543 46.1505 144.543 45.8521C144.543 45.5322 144.313 45.2949 144 45.2949C143.709 45.2949 143.468 45.543 143.468 45.8449C143.468 46.1721 143.709 46.4021 144 46.4021V46.3985Z" fill="white"/>
<path d="M154.961 44.3533H153.311L154.102 43.5301L155.364 42.4624H154.102C153.534 43.1742 152.718 44.0693 151.643 45.1369H154.767C155.77 45.1369 156.27 45.482 156.27 46.1866V47.5203H147.282C146.848 47.5203 146.635 47.2183 146.635 46.6072V44.4899L145.596 44.7451L145.765 45.9494V47.5275C145.765 48.2105 145.586 48.7605 145.241 49.1883C144.921 49.5801 144.529 49.7743 144.069 49.7743C142.958 49.7743 142.311 48.8791 142.311 47.4556V45.82H141.441V47.4808C141.441 48.3651 141.635 49.0517 142.027 49.5442C142.462 50.0834 143.102 50.3458 143.943 50.3458C145.399 50.3458 146.366 49.5514 146.589 48.2752C146.74 48.3219 146.901 48.3399 147.067 48.3399H147.671H157.147V46.0285C157.147 44.9788 156.349 44.3497 154.961 44.3497V44.3533Z" fill="white"/>
<path d="M158.448 44.7272L158.624 45.9495L158.631 48.2394C158.631 49.1524 158.221 49.7384 157.405 50.0008L157.592 50.3567C158.861 49.99 159.501 49.1884 159.501 47.9554V44.4756L158.444 44.7236L158.448 44.7272Z" fill="white"/>
<path fill-rule="evenodd" clip-rule="evenodd" d="M158.009 13.2792H158.005L153.929 10.3027C153.234 9.79603 152.415 9.52153 151.583 9.49262C151.16 9.47794 150.734 9.52673 150.319 9.64074C150.143 9.68906 149.969 9.74911 149.799 9.82101L149.798 9.82103L145.19 11.7604L138.542 14.5587L138.532 14.5626L142.58 17.5175C143.364 18.0902 144.305 18.3713 145.246 18.3414C145.399 18.3366 145.553 18.3235 145.705 18.3021C146.069 18.2511 146.428 18.1529 146.775 18.0064L146.775 18.0064L158.009 13.2792ZM138.606 13.7516L145.265 10.9489L145.65 6.77982C145.787 5.30235 145.136 3.86442 143.942 2.98729L139.873 0L138.606 13.7516ZM138.035 35.591L141.763 29.3984L148.846 41.2541L143.795 41.2397C142.314 41.2361 140.941 40.456 140.182 39.1835L138.035 35.591ZM137.617 34.8914L141.339 28.7081H141.339L141.343 28.701H138.156L138.155 28.701L138.143 28.701H136.332C136.257 28.701 136.182 28.7029 136.108 28.7068C135.991 28.7129 135.875 28.7237 135.761 28.739C134.479 28.9106 133.332 29.6529 132.655 30.7752L126.367 41.2181H131.418C131.788 41.2181 132.152 41.1698 132.501 41.0775C133.549 40.8006 134.466 40.128 135.038 39.1763L137.617 34.8913L137.617 34.8914ZM125.181 26.7756L132.236 28.3439L123.247 38.824L121.658 34.0285C121.191 32.6229 121.496 31.0736 122.46 29.9484L125.181 26.7756ZM116.147 17.4996L117.812 22.4783C118.243 23.7653 119.318 24.7359 120.645 25.0307L132.773 27.7267L131.184 22.9745C130.706 21.5473 129.516 20.4725 128.046 20.1453L116.147 17.4996ZM129.462 11.667L130.138 18.8628L117.402 13.5237L121.475 10.54C122.672 9.66286 124.239 9.47952 125.605 10.0511L129.462 11.667ZM135.51 0.218028L131.447 3.21014C130.254 4.09087 129.61 5.5288 129.747 7.00627L130.89 19.1746L132.42 18.047L132.45 18.0251L133.558 17.208C133.558 17.2076 133.559 17.2073 133.559 17.2069L134.923 16.2018C136.134 15.3103 136.792 13.8472 136.649 12.3446L135.51 0.218028ZM135.509 0.21228L135.51 0.217816L135.513 0.215687L135.509 0.21228ZM152.509 38.8166V38.8096L154.051 34.0033C154.504 32.5906 154.184 31.0448 153.21 29.9304L149.921 26.1697L149.921 26.1697L145.169 20.7365L145.169 20.7367L145.161 20.7278L143.63 25.5016C143.17 26.9359 143.493 28.5032 144.485 29.6392L152.509 38.8166ZM150.715 25.9851L154.788 25.0379C156.233 24.7036 157.394 23.6359 157.851 22.2267L159.407 17.4241L145.957 20.5455L150.715 25.9851Z" fill="white"/>
<path d="M143.87 23.3627C143.87 24.5706 142.893 25.5484 141.685 25.5484C140.477 25.5484 139.499 24.5706 139.499 23.3627C139.499 22.1549 140.477 21.1807 141.685 21.1807C142.893 21.1807 143.87 22.1585 143.87 23.3627Z" fill="white"/>
<path d="M142.39 18.9413C142.39 20.1492 141.412 21.127 140.204 21.127C138.996 21.127 138.022 20.1492 138.022 18.9413C138.022 17.7335 139 16.7593 140.204 16.7593C141.408 16.7593 142.39 17.7371 142.39 18.9413Z" fill="white"/>
<path d="M137.662 18.941C137.662 20.1453 136.685 21.1231 135.48 21.1231C134.276 21.1231 133.298 20.1453 133.298 18.941C133.298 17.7368 134.276 16.7554 135.48 16.7554C136.685 16.7554 137.662 17.7332 137.662 18.941Z" fill="white"/>
<path d="M135.962 23.3588C135.962 24.5667 134.984 25.5445 133.78 25.5445C132.576 25.5445 131.594 24.5667 131.594 23.3588C131.594 22.151 132.572 21.1768 133.78 21.1768C134.988 21.1768 135.962 22.1545 135.962 23.3588Z" fill="white"/>
<path d="M139.941 26.2276C139.941 27.4319 138.964 28.4097 137.759 28.4097C136.555 28.4097 135.574 27.4319 135.574 26.2276C135.574 25.0234 136.552 24.042 137.759 24.042C138.967 24.042 139.941 25.0198 139.941 26.2276Z" fill="white"/>
<path d="M118.567 55.0473C118.34 55.0473 118.157 54.9754 118.02 54.828C117.869 54.9107 117.682 54.9502 117.463 54.9538C117.003 54.9538 116.723 54.6267 116.723 54.109C116.723 53.8286 116.813 53.6058 116.999 53.4368C117.186 53.2642 117.431 53.178 117.733 53.178H117.869L117.844 52.9839C118.031 52.9371 118.204 52.8976 118.362 52.8688V54.3139C118.362 54.5476 118.466 54.6626 118.675 54.6626H118.948V55.0509H118.567V55.0473ZM117.614 52.4303C117.614 52.5633 117.506 52.6891 117.355 52.6891C117.204 52.6891 117.093 52.574 117.093 52.4231C117.093 52.2865 117.204 52.1606 117.355 52.1606C117.499 52.1606 117.614 52.2721 117.614 52.4303ZM117.938 53.4548C117.855 53.4584 117.78 53.462 117.704 53.462C117.557 53.4656 117.427 53.5195 117.319 53.6273C117.212 53.7352 117.161 53.8682 117.161 54.0263C117.165 54.4002 117.298 54.5907 117.56 54.5907C117.69 54.5907 117.815 54.5728 117.934 54.5404V53.4548H117.938ZM118.304 52.4303C118.304 52.5633 118.197 52.6891 118.046 52.6891C117.895 52.6891 117.78 52.574 117.78 52.4231C117.78 52.2865 117.895 52.1606 118.046 52.1606C118.182 52.1606 118.304 52.2721 118.304 52.4303Z" fill="white"/>
<path d="M119.336 55.7411C119.336 55.8741 119.221 55.9999 119.07 55.9999C118.934 55.9999 118.808 55.892 118.808 55.7375C118.808 55.5937 118.934 55.4786 119.07 55.4786C119.207 55.4786 119.336 55.5901 119.336 55.7411ZM120.501 55.0473H120.177C120.005 55.0473 119.865 55.0041 119.757 54.9179C119.645 55.0041 119.505 55.0473 119.343 55.0473H118.829V54.659H119.232C119.444 54.659 119.545 54.5476 119.545 54.3175V53.8718L119.458 53.3146L119.972 53.2031V54.3139C119.972 54.544 120.077 54.6554 120.289 54.6554H120.504V55.0437L120.501 55.0473ZM120.023 55.7411C120.023 55.8741 119.911 55.9999 119.76 55.9999C119.617 55.9999 119.501 55.892 119.501 55.7375C119.501 55.5937 119.617 55.4786 119.76 55.4786C119.904 55.4786 120.023 55.5901 120.023 55.7411Z" fill="white"/>
<path d="M122.032 55.0472H121.745C121.572 55.0472 121.428 55.004 121.317 54.9142C121.209 55.004 121.073 55.0472 120.907 55.0472H120.382V54.6589H120.796C121.004 54.6589 121.105 54.5439 121.105 54.3066V52.9658L121.022 52.387L121.536 52.272V54.3066C121.536 54.5439 121.641 54.6589 121.845 54.6589H122.032V55.0472Z" fill="white"/>
<path d="M121.914 55.0471V54.6589H122.536C122.493 54.5798 122.471 54.4899 122.471 54.3929C122.471 54.1844 122.554 54.0046 122.712 53.8536C122.877 53.7026 123.064 53.6236 123.276 53.6236C123.434 53.6236 123.564 53.6667 123.664 53.753C123.772 53.8536 123.823 53.9866 123.823 54.1556L123.815 54.6589H124.056V53.8824C124.056 53.5589 123.758 53.3647 123.316 53.3647C123.071 53.3647 122.816 53.4223 122.561 53.5337L122.629 53.2138C122.863 53.1239 123.129 53.0771 123.434 53.0771C123.74 53.0771 123.977 53.1347 124.153 53.2425C124.373 53.3683 124.484 53.5553 124.484 53.8105V55.0471H121.91H121.914ZM123.427 54.0909C123.427 53.9219 123.366 53.8393 123.251 53.8393C123.158 53.8393 123.071 53.8896 122.989 53.9974C122.895 54.1125 122.845 54.2562 122.845 54.4144C122.845 54.5726 122.945 54.6553 123.147 54.6553H123.427V54.0873V54.0909Z" fill="white"/>
<path d="M125.616 52.3942H124.729V52.236H124.883C124.883 51.9987 125.009 51.8262 125.228 51.8262C125.318 51.8262 125.404 51.8549 125.487 51.9124C125.473 51.9484 125.458 51.9915 125.437 52.0455C125.372 51.9879 125.322 51.9592 125.282 51.9628C125.16 51.9628 125.102 52.0526 125.102 52.2324H125.314L125.473 52.2144L125.62 52.3906L125.616 52.3942ZM126.828 54.4037C126.828 54.5834 126.77 54.7344 126.662 54.853C126.551 54.9824 126.396 55.0471 126.199 55.0471H124.977L125.163 54.6589H126.066L125.264 53.2929L124.847 52.7932H125.415L126.407 54.5043V52.9657L126.303 52.387L126.831 52.2719V54.4037H126.828Z" fill="white"/>
<path d="M127.845 52.2614L127.799 52.833V55.0438H127.371V52.8366L127.306 52.301L127.845 52.2578V52.2614Z" fill="white"/>
<path d="M129.689 54.864C129.689 55.4464 129.38 55.8238 128.762 55.9964L128.672 55.8274C129.067 55.7016 129.265 55.4284 129.265 54.997V53.915L129.175 53.3362L129.689 53.2212V54.864Z" fill="white"/>
<path d="M130.707 52.2614L130.66 52.833V55.0438H130.232V52.8366L130.167 52.301L130.707 52.2578V52.2614Z" fill="white"/>
<path d="M133.259 55.0474H132.752C132.68 55.5435 132.375 55.8634 131.842 56L131.753 55.8311C132.123 55.6873 132.317 55.4248 132.339 55.0474H131.929C131.695 55.0474 131.508 54.9791 131.364 54.8353C131.206 54.6843 131.124 54.483 131.124 54.2242C131.124 53.9114 131.213 53.6598 131.4 53.4657C131.587 53.2716 131.832 53.1709 132.134 53.1709H132.763V54.6592H133.263V55.0474H133.259ZM132.324 54.6592V53.4225H132.105C131.763 53.4225 131.562 53.6993 131.562 54.1451C131.562 54.4866 131.695 54.6592 131.961 54.6592H132.324Z" fill="white"/>
<path d="M135.833 55.0469H133.144V54.6587H135.006C134.902 54.4214 134.762 54.177 134.575 53.929C134.338 53.6054 134.125 53.4472 133.949 53.4472C133.82 53.4472 133.755 53.5299 133.755 53.6881C133.755 53.7672 133.777 53.8606 133.816 53.9757L133.367 54.026C133.414 53.4616 133.708 53.1201 134.086 53.1201C134.381 53.1201 134.675 53.3106 134.974 53.6881C135.204 53.9865 135.384 54.31 135.509 54.6551H135.833V55.0433V55.0469Z" fill="white"/>
<path d="M137.166 54.4035C137.166 54.8061 136.922 55.0469 136.523 55.0469H135.718V54.6587H136.419C136.631 54.6587 136.735 54.5437 136.735 54.3064V52.9368L136.663 52.3688L137.166 52.2466V54.4071V54.4035Z" fill="white"/>
<path d="M138.184 52.2614L138.137 52.833V55.0438H137.709V52.8366L137.645 52.301L138.184 52.2578V52.2614Z" fill="white"/>
<path d="M142.526 55.0473H142.027C141.944 55.0473 141.868 55.0401 141.793 55.0186C141.685 55.6225 141.214 55.9963 140.51 55.9963C140.1 55.9963 139.791 55.8705 139.578 55.6189C139.388 55.3852 139.294 55.0617 139.294 54.6447V53.861H139.715V54.6339C139.715 55.3061 140.031 55.7267 140.567 55.7267C140.79 55.7267 140.98 55.6369 141.135 55.4499C141.304 55.2486 141.39 54.9898 141.39 54.6663V53.9221L141.308 53.3542L141.811 53.2319V54.2313C141.811 54.5189 141.915 54.6627 142.127 54.6627H142.523V55.0509L142.526 55.0473ZM140.801 53.8718C140.801 54.0156 140.689 54.1306 140.538 54.1306C140.395 54.1306 140.279 54.0228 140.279 53.8682C140.279 53.7244 140.395 53.6094 140.538 53.6094C140.689 53.6094 140.801 53.7208 140.801 53.8718Z" fill="white"/>
<path d="M145.212 55.0472H142.321V54.6589H144.787V54.0298C144.787 53.6991 144.546 53.5338 144.058 53.5338H142.541C143.062 53.0305 143.457 52.6063 143.734 52.272H144.345L143.734 52.7752L143.349 53.1635H144.151C144.823 53.1635 145.212 53.4619 145.212 53.9579V55.0472Z" fill="white"/>
<path d="M146.362 54.864C146.362 55.4464 146.053 55.8238 145.435 55.9964L145.345 55.8274C145.74 55.7016 145.938 55.4284 145.938 54.997V53.915L145.848 53.3362L146.362 53.2212V54.864Z" fill="white"/>
<path d="M149.317 55.0473C149.09 55.0473 148.907 54.9754 148.77 54.828C148.619 54.9107 148.432 54.9502 148.213 54.9538C147.753 54.9538 147.473 54.6267 147.473 54.109C147.473 53.8286 147.563 53.6058 147.749 53.4368C147.936 53.2642 148.181 53.178 148.483 53.178H148.619L148.594 52.9839C148.781 52.9371 148.954 52.8976 149.112 52.8688V54.3139C149.112 54.5476 149.216 54.6626 149.428 54.6626H149.702V55.0509H149.32L149.317 55.0473ZM148.364 52.4303C148.364 52.5633 148.256 52.6891 148.105 52.6891C147.954 52.6891 147.843 52.574 147.843 52.4231C147.843 52.2865 147.954 52.1606 148.105 52.1606C148.249 52.1606 148.364 52.2721 148.364 52.4303ZM148.688 53.4548C148.605 53.4584 148.53 53.462 148.454 53.462C148.307 53.4656 148.177 53.5195 148.069 53.6273C147.962 53.7352 147.911 53.8682 147.911 54.0263C147.915 54.4002 148.048 54.5907 148.31 54.5907C148.44 54.5907 148.566 54.5728 148.684 54.5404V53.4548H148.688ZM149.054 52.4303C149.054 52.5633 148.947 52.6891 148.796 52.6891C148.645 52.6891 148.53 52.574 148.53 52.4231C148.53 52.2865 148.645 52.1606 148.796 52.1606C148.932 52.1606 149.054 52.2721 149.054 52.4303Z" fill="white"/>
<path d="M150.087 55.7411C150.087 55.8741 149.972 55.9999 149.821 55.9999C149.684 55.9999 149.558 55.892 149.558 55.7375C149.558 55.5937 149.684 55.4786 149.821 55.4786C149.957 55.4786 150.087 55.5901 150.087 55.7411ZM151.251 55.0473H150.928C150.755 55.0473 150.615 55.0041 150.507 54.9179C150.396 55.0041 150.255 55.0473 150.094 55.0473H149.58V54.659H149.982C150.194 54.659 150.299 54.5476 150.299 54.3175V53.8718L150.212 53.3146L150.726 53.2031V54.3139C150.726 54.544 150.831 54.6554 151.039 54.6554H151.255V55.0437L151.251 55.0473ZM150.773 55.7411C150.773 55.8741 150.662 55.9999 150.511 55.9999C150.367 55.9999 150.252 55.892 150.252 55.7375C150.252 55.5937 150.367 55.4786 150.511 55.4786C150.655 55.4786 150.773 55.5901 150.773 55.7411Z" fill="white"/>
<path d="M154.148 55.0472H153.124C152.995 55.0472 152.844 55.0077 152.675 54.9358C152.646 54.9538 152.545 54.9573 152.376 54.9537C152.25 54.9537 152.189 54.9825 152.186 55.0472H151.122V54.659H152.121C152.178 54.659 152.229 54.6554 152.286 54.641C152.186 54.5547 151.948 54.3318 151.571 53.9688C151.571 53.7675 151.679 53.5805 151.894 53.4188C152.114 53.2534 152.376 53.1743 152.682 53.1743C152.987 53.1743 153.246 53.257 153.469 53.426C153.681 53.5841 153.785 53.7711 153.785 53.9724C153.742 54.0119 153.501 54.2348 153.063 54.6446C153.12 54.659 153.178 54.6626 153.235 54.6626H154.148V55.0508V55.0472ZM153.322 53.8933C153.307 53.807 153.253 53.7279 153.153 53.6668C153.027 53.5877 152.869 53.5518 152.682 53.5518C152.495 53.5518 152.34 53.5913 152.218 53.6668C152.114 53.7387 152.053 53.8142 152.042 53.8933C152.186 54.0299 152.394 54.2348 152.685 54.5008L153.322 53.8933Z" fill="white"/>
<path d="M156.708 55.0472H156.399C156.24 55.0472 156.1 55.0041 155.989 54.9142C155.777 55.1658 155.525 55.2881 155.227 55.2881C154.986 55.2881 154.799 55.1802 154.677 54.9681C154.583 55.0185 154.475 55.0472 154.353 55.0472H153.904V54.659H154.235C154.429 54.659 154.526 54.5655 154.533 54.375C154.554 53.7603 154.953 53.3828 155.611 53.3828C155.823 53.3828 156.028 53.4188 156.237 53.4835L156.187 53.9328V54.3211C156.187 54.5511 156.291 54.6626 156.503 54.6626H156.715V55.0508L156.708 55.0472ZM155.755 54.7417V53.9544L155.719 53.7135C155.654 53.692 155.586 53.6848 155.511 53.6848C155.151 53.6848 154.971 53.9077 154.971 54.3606C154.971 54.7237 155.126 54.9394 155.335 54.9394C155.489 54.9394 155.626 54.8747 155.752 54.7452L155.755 54.7417Z" fill="white"/>
<path d="M159.055 55.0469H156.593V54.6587H158.455C158.351 54.4214 158.21 54.177 158.024 53.929C157.786 53.6054 157.574 53.4472 157.398 53.4472C157.269 53.4472 157.204 53.5299 157.204 53.6881C157.204 53.7672 157.226 53.8606 157.265 53.9757L156.816 54.026C156.862 53.4616 157.157 53.1201 157.535 53.1201C157.862 53.1201 158.2 53.361 158.538 53.8499C158.854 54.2992 159.019 54.6946 159.052 55.0433L159.055 55.0469ZM158.167 55.7407C158.167 55.8737 158.059 55.9996 157.908 55.9996C157.757 55.9996 157.642 55.8917 157.642 55.7371C157.642 55.5933 157.757 55.4783 157.908 55.4783C158.045 55.4783 158.167 55.5898 158.167 55.7407Z" fill="white"/>
</svg>
