<svg width="25" height="24" viewBox="0 0 25 24" fill="none" xmlns="http://www.w3.org/2000/svg">
<g clip-path="url(#clip0_68_28807)">
<path d="M23.75 12C23.75 5.57812 18.5469 0.375 12.125 0.375C5.70312 0.375 0.5 5.57812 0.5 12C0.5 17.8022 4.75109 22.6116 10.3086 23.4844V15.3605H7.35547V12H10.3086V9.43875C10.3086 6.52547 12.043 4.91625 14.6994 4.91625C15.9716 4.91625 17.3019 5.14313 17.3019 5.14313V8.0025H15.8356C14.3919 8.0025 13.9414 8.89875 13.9414 9.81797V12H17.1655L16.6498 15.3605H13.9414V23.4844C19.4989 22.6116 23.75 17.8022 23.75 12Z" fill="#6B7280"/>
</g>
<defs>
<clipPath id="clip0_68_28807">
<rect width="24" height="24" fill="white" transform="translate(0.125)"/>
</clipPath>
</defs>
</svg>
