<svg width="25" height="24" viewBox="0 0 25 24" fill="none" xmlns="http://www.w3.org/2000/svg">
<g clip-path="url(#clip0_68_28806)">
<path fill-rule="evenodd" clip-rule="evenodd" d="M24.125 12C24.125 18.4203 18.9203 23.625 12.5 23.625C6.07969 23.625 0.875 18.4203 0.875 12C0.875 5.57969 6.07969 0.375 12.5 0.375C18.9203 0.375 24.125 5.57969 24.125 12ZM12.9166 8.95709C11.7859 9.42739 9.52607 10.4008 6.13715 11.8773C5.58684 12.0961 5.29856 12.3102 5.27232 12.5195C5.22797 12.8733 5.671 13.0126 6.2743 13.2023C6.35637 13.2281 6.44139 13.2549 6.52856 13.2832C7.12212 13.4762 7.92055 13.7019 8.33562 13.7108C8.71213 13.719 9.13236 13.5638 9.59631 13.2452C12.7627 11.1078 14.3972 10.0274 14.4998 10.0042C14.5722 9.98772 14.6725 9.96706 14.7405 10.0275C14.8085 10.0879 14.8018 10.2023 14.7946 10.233C14.7507 10.4201 13.0116 12.0369 12.1116 12.8736C11.8311 13.1344 11.6321 13.3195 11.5914 13.3617C11.5003 13.4564 11.4074 13.5459 11.3181 13.632C10.7667 14.1635 10.3532 14.5622 11.341 15.2131C11.8157 15.526 12.1956 15.7847 12.5745 16.0427C12.9884 16.3246 13.4012 16.6057 13.9353 16.9558C14.0714 17.045 14.2013 17.1376 14.3279 17.2279C14.8096 17.5713 15.2423 17.8797 15.7769 17.8306C16.0875 17.802 16.4084 17.5099 16.5713 16.6387C16.9565 14.5799 17.7135 10.1191 17.8884 8.28094C17.9037 8.11989 17.8844 7.91378 17.869 7.82331C17.8535 7.73283 17.8211 7.60392 17.7035 7.50849C17.5642 7.39547 17.3492 7.37164 17.253 7.37333C16.8158 7.38103 16.145 7.61429 12.9166 8.95709Z" fill="#6B7280"/>
</g>
<defs>
<clipPath id="clip0_68_28806">
<rect width="23.25" height="23.25" fill="white" transform="translate(0.875 0.375)"/>
</clipPath>
</defs>
</svg>
