<svg width="25" height="24" viewBox="0 0 25 24" fill="none" xmlns="http://www.w3.org/2000/svg">
<path d="M21.658 6.85784C21.6732 7.07103 21.6732 7.28427 21.6732 7.49745C21.6732 14 16.724 21.4924 7.6783 21.4924C4.89148 21.4924 2.30267 20.6852 0.125 19.2843C0.520953 19.3299 0.901625 19.3452 1.31281 19.3452C3.61227 19.3452 5.72905 18.5685 7.41941 17.2437C5.25697 17.198 3.44478 15.7817 2.82041 13.8325C3.125 13.8781 3.42955 13.9086 3.74937 13.9086C4.19098 13.9086 4.63264 13.8477 5.04378 13.7411C2.78998 13.2842 1.09958 11.3045 1.09958 8.91369V8.8528C1.75437 9.21828 2.51586 9.4467 3.32291 9.47712C1.99803 8.59386 1.13005 7.08627 1.13005 5.38067C1.13005 4.46698 1.37366 3.62942 1.80008 2.89845C4.22141 5.88322 7.86102 7.83242 11.9422 8.04566C11.8661 7.68017 11.8204 7.2995 11.8204 6.91878C11.8204 4.20809 14.0133 2 16.7391 2C18.1554 2 19.4345 2.59391 20.333 3.5533C21.4447 3.34011 22.5107 2.92892 23.4549 2.36548C23.0893 3.50764 22.3127 4.46703 21.2924 5.07613C22.2823 4.96958 23.2417 4.69541 24.1249 4.31473C23.455 5.28931 22.6174 6.1573 21.658 6.85784Z" fill="#6B7280"/>
</svg>
