<svg width="22" height="24" viewBox="0 0 22 24" fill="none" xmlns="http://www.w3.org/2000/svg">
<g clip-path="url(#clip0_68_28808)">
<path d="M17.9797 4.55156C16.0156 2.58281 13.4 1.5 10.6203 1.5C4.88281 1.5 0.214062 6.16875 0.214062 11.9062C0.214062 13.7391 0.692188 15.5297 1.60156 17.1094L0.125 22.5L5.64219 21.0516C7.16094 21.8813 8.87187 22.3172 10.6156 22.3172H10.6203C16.3531 22.3172 21.125 17.6484 21.125 11.9109C21.125 9.13125 19.9438 6.52031 17.9797 4.55156ZM10.6203 20.5641C9.06406 20.5641 7.54062 20.1469 6.21406 19.3594L5.9 19.1719L2.62813 20.0297L3.5 16.8375L3.29375 16.5094C2.42656 15.1313 1.97188 13.5422 1.97188 11.9062C1.97188 7.13906 5.85312 3.25781 10.625 3.25781C12.9359 3.25781 15.1062 4.15781 16.7375 5.79375C18.3687 7.42969 19.3719 9.6 19.3672 11.9109C19.3672 16.6828 15.3875 20.5641 10.6203 20.5641ZM15.3641 14.0859C15.1063 13.9547 13.8266 13.3266 13.5875 13.2422C13.3484 13.1531 13.175 13.1109 13.0016 13.3734C12.8281 13.6359 12.3313 14.2172 12.1766 14.3953C12.0266 14.5688 11.8719 14.5922 11.6141 14.4609C10.0859 13.6969 9.08281 13.0969 8.075 11.3672C7.80781 10.9078 8.34219 10.9406 8.83906 9.94687C8.92344 9.77344 8.88125 9.62344 8.81562 9.49219C8.75 9.36094 8.22969 8.08125 8.01406 7.56094C7.80313 7.05469 7.5875 7.125 7.42813 7.11563C7.27813 7.10625 7.10469 7.10625 6.93125 7.10625C6.75781 7.10625 6.47656 7.17188 6.2375 7.42969C5.99844 7.69219 5.32812 8.32031 5.32812 9.6C5.32812 10.8797 6.26094 12.1172 6.3875 12.2906C6.51875 12.4641 8.22031 15.0891 10.8312 16.2188C12.4812 16.9312 13.1281 16.9922 13.9531 16.8703C14.4547 16.7953 15.4906 16.2422 15.7062 15.6328C15.9219 15.0234 15.9219 14.5031 15.8563 14.3953C15.7953 14.2781 15.6219 14.2125 15.3641 14.0859Z" fill="#6B7280"/>
</g>
<defs>
<clipPath id="clip0_68_28808">
<rect width="21" height="24" fill="white" transform="translate(0.125)"/>
</clipPath>
</defs>
</svg>
