<svg width="45" height="45" viewBox="0 0 45 45" fill="none" xmlns="http://www.w3.org/2000/svg">
<path d="M16.6548 0.0234375V33.8162H17.7908V2.36333H34.6024C36.0097 2.36333 37.1543 3.54175 37.1543 4.99994V40.217C39.0787 39.3098 41.5627 37.6651 42.5886 36.5969V5.22884C42.5886 2.35485 40.3334 0.0234375 37.5527 0.0234375H16.6633H16.6548Z" fill="#006991"/>
<path d="M21.8358 28.0859H19.7842C19.5638 28.0859 19.3857 28.264 19.3857 28.4844C19.3857 28.7048 19.5638 28.8829 19.7842 28.8829H21.8358C22.0563 28.8829 22.2343 28.7048 22.2343 28.4844C22.2343 28.264 22.0563 28.0859 21.8358 28.0859Z" fill="#F7941D"/>
<path d="M22.0216 23.4816C21.869 23.329 21.6147 23.329 21.4621 23.4816C21.3095 23.6342 21.3095 23.8886 21.4621 24.0412L22.9118 25.4909C23.0644 25.6435 23.3188 25.6435 23.4714 25.4909C23.624 25.3383 23.624 25.084 23.4714 24.9314L22.0216 23.4816Z" fill="#F7941D"/>
<path d="M31.466 23.4816C31.3134 23.329 31.0591 23.329 30.9065 23.4816L29.4567 24.9314C29.3041 25.084 29.3041 25.3383 29.4567 25.4909C29.6093 25.6435 29.8637 25.6435 30.0163 25.4909L31.466 24.0412C31.6186 23.8886 31.6186 23.6342 31.466 23.4816Z" fill="#F7941D"/>
<path d="M26.4634 21.4053C26.243 21.4053 26.0649 21.5833 26.0649 21.8037V23.8554C26.0649 24.0758 26.243 24.2538 26.4634 24.2538C26.6838 24.2538 26.8619 24.0758 26.8619 23.8554V21.8037C26.8619 21.5833 26.6838 21.4053 26.4634 21.4053Z" fill="#F7941D"/>
<path d="M33.1366 28.0859H31.085C30.8646 28.0859 30.6865 28.264 30.6865 28.4844C30.6865 28.7048 30.8646 28.8829 31.085 28.8829H33.1366C33.357 28.8829 33.5351 28.7048 33.5351 28.4844C33.5351 28.264 33.357 28.0859 33.1366 28.0859Z" fill="#F7941D"/>
<path d="M35.484 40.7593C35.5857 40.0133 35.6536 39.1061 35.6536 38.6822V34.6807C35.6536 33.9601 35.0686 33.3751 34.348 33.3751C33.6274 33.3751 33.0424 33.9601 33.0424 34.6807V34.2229C33.0424 33.5023 32.4574 32.9173 31.7368 32.9173C31.0162 32.9173 30.4312 33.5023 30.4312 34.2229V33.7651C30.4312 33.0445 29.8462 32.4595 29.1256 32.4595C28.405 32.4595 27.82 33.0445 27.82 33.7651V27.6865C27.82 26.9658 27.235 26.3809 26.5144 26.3809C25.7938 26.3809 25.2088 26.9658 25.2088 27.6865V35.3674C25.2088 36.2237 24.7934 36.266 24.4458 35.9185L23.9711 35.4437C21.9025 33.3751 19.8254 34.9859 20.3341 35.4946L22.0296 37.1901C22.8774 38.0379 23.9795 39.0129 25.6073 41.0052C25.8786 41.3358 26.0651 41.7597 26.1923 42.209C26.5229 42.226 26.8451 42.2345 27.1757 42.2345C30.1006 42.2345 32.8983 41.7088 35.484 40.7593Z" fill="#81CACA"/>
<path d="M35.4851 41.4547C32.8993 42.4042 30.0932 42.9298 27.1768 42.9298C26.8461 42.9298 26.524 42.9213 26.1933 42.9044C13.6376 42.4042 3.56593 32.2986 3.09965 19.7344C3.09117 20.0396 3.07422 20.3363 3.07422 20.6415C3.07422 33.9517 13.8665 44.7441 27.1768 44.7441C33.035 44.7441 38.4015 42.65 42.581 39.1741V37.3429C40.487 39.0893 38.0878 40.4882 35.4851 41.4462V41.4547Z" fill="url(#paint0_linear_2320_28035)"/>
<path d="M28.0323 8.56094L27.5151 8.17943L27.7864 5.24609L28.6088 5.84802C28.8462 6.02606 28.9818 6.3143 28.9564 6.61103L28.8122 8.21335C28.7783 8.58637 28.346 8.78136 28.0408 8.56094H28.0323Z" fill="url(#paint1_linear_2320_28035)"/>
<path d="M31.4326 7.92606L30.6102 7.32413C30.3728 7.1461 30.0507 7.11219 29.7794 7.23088L27.5073 8.18887L28.3212 8.78232C28.5671 8.96036 28.8892 9.00275 29.169 8.88406L31.4326 7.93454V7.92606Z" fill="url(#paint2_linear_2320_28035)"/>
<path d="M26.4905 8.73039L25.9733 9.11189L23.252 7.97586L24.0743 7.37393C24.3117 7.19589 24.6338 7.16198 24.9051 7.27219L26.3888 7.89108C26.7364 8.0352 26.7872 8.50149 26.4905 8.73039Z" fill="url(#paint3_linear_2320_28035)"/>
<path d="M26.9059 5.28875L26.0835 5.89068C25.8461 6.06871 25.7105 6.35696 25.7444 6.65369L25.9733 9.10379L26.7872 8.50186C27.033 8.32383 27.1602 8.0271 27.1348 7.7219L26.9059 5.28027V5.28875Z" fill="url(#paint4_linear_2320_28035)"/>
<path d="M26.1434 10.2231L26.3468 10.8335L24.4308 13.0716L24.1087 12.1051C24.0154 11.8254 24.0748 11.5117 24.2697 11.2828L25.321 10.062C25.5669 9.77374 26.0247 9.86699 26.1434 10.2231Z" fill="url(#paint5_linear_2320_28035)"/>
<path d="M22.9968 8.77246L23.3359 9.77285C23.4207 10.0357 23.6411 10.2307 23.9039 10.29L26.3455 10.8326L26.0234 9.87458C25.9301 9.58633 25.6842 9.37439 25.3875 9.30657L22.9883 8.77246H22.9968Z" fill="url(#paint6_linear_2320_28035)"/>
<path d="M27.4315 11.0371H28.0758L29.5849 13.5635H28.5676C28.2708 13.5635 27.9911 13.4024 27.8385 13.1481L27.0161 11.7662C26.8211 11.444 27.0585 11.0371 27.4315 11.0371Z" fill="url(#paint7_linear_2320_28035)"/>
<path d="M25.0566 13.5547H26.074C26.3707 13.5547 26.6505 13.4021 26.8031 13.1393L28.0748 11.0283H27.0659C26.7607 11.0283 26.4809 11.1894 26.3283 11.4437L25.0651 13.5462L25.0566 13.5547Z" fill="url(#paint8_linear_2320_28035)"/>
<path d="M28.6522 10.036L28.8472 9.42561L31.7127 8.75586L31.399 9.72234C31.3057 10.0106 31.0768 10.2225 30.7801 10.2904L29.2117 10.6549C28.8472 10.7397 28.525 10.3921 28.6437 10.036H28.6522Z" fill="url(#paint9_linear_2320_28035)"/>
<path d="M30.3305 13.0703L30.6442 12.1038C30.7374 11.8156 30.6696 11.5104 30.4746 11.2815L28.8553 9.4248L28.5501 10.3828C28.4569 10.6711 28.5247 10.9847 28.7197 11.2136L30.339 13.0618L30.3305 13.0703Z" fill="url(#paint10_linear_2320_28035)"/>
<path d="M28.5848 9.96038C28.5848 10.2062 28.3898 10.4012 28.144 10.4012C27.8981 10.4012 27.7031 10.2062 27.7031 9.96038C27.7031 9.71452 27.8981 9.51953 28.144 9.51953C28.3898 9.51953 28.5848 9.71452 28.5848 9.96038Z" fill="url(#paint11_radial_2320_28035)"/>
<path d="M28.2879 9.06976C28.2879 9.31561 28.093 9.5106 27.8471 9.5106C27.6012 9.5106 27.4062 9.31561 27.4062 9.06976C27.4062 8.8239 27.6012 8.62891 27.8471 8.62891C28.093 8.62891 28.2879 8.8239 28.2879 9.06976Z" fill="url(#paint12_radial_2320_28035)"/>
<path d="M27.3378 9.06976C27.3378 9.31561 27.1428 9.5106 26.8969 9.5106C26.651 9.5106 26.4561 9.31561 26.4561 9.06976C26.4561 8.8239 26.651 8.62891 26.8969 8.62891C27.1428 8.62891 27.3378 8.8239 27.3378 9.06976Z" fill="url(#paint13_radial_2320_28035)"/>
<path d="M26.9901 9.96038C26.9901 10.2062 26.7951 10.4012 26.5492 10.4012C26.3034 10.4012 26.1084 10.2062 26.1084 9.96038C26.1084 9.71452 26.3034 9.51953 26.5492 9.51953C26.7951 9.51953 26.9901 9.71452 26.9901 9.96038Z" fill="url(#paint14_radial_2320_28035)"/>
<path d="M27.7967 10.5356C27.7967 10.7814 27.6017 10.9764 27.3559 10.9764C27.11 10.9764 26.915 10.7814 26.915 10.5356C26.915 10.2897 27.11 10.0947 27.3559 10.0947C27.6017 10.0947 27.7967 10.2897 27.7967 10.5356Z" fill="url(#paint15_radial_2320_28035)"/>
<path d="M23.2258 14.5132V14.971C23.2258 15.1575 23.1495 15.2762 22.98 15.3271L23.0139 15.3949C23.2682 15.3186 23.3954 15.1575 23.3954 14.9117V14.208L23.1834 14.2589L23.2174 14.5047L23.2258 14.5132Z" fill="#4D4D4F"/>
<path d="M23.625 14.0551V14.9962H23.8031V14.0466L23.82 13.8008L23.5996 13.8262L23.625 14.0551Z" fill="#4D4D4F"/>
<path d="M27.0317 14.0897V14.6747C27.0317 14.7764 26.9893 14.8273 26.9045 14.8273H26.6162H26.5315C26.4806 14.6831 26.4043 14.539 26.311 14.4119C26.1839 14.2508 26.0652 14.166 25.9465 14.166C25.7854 14.166 25.6667 14.3101 25.6498 14.556L25.8363 14.5305C25.8193 14.4797 25.8108 14.4373 25.8108 14.4034C25.8108 14.3356 25.8363 14.3016 25.8871 14.3016C25.9634 14.3016 26.0482 14.3695 26.15 14.5051C26.2263 14.6068 26.2856 14.7171 26.328 14.8188H24.6833V14.1829H24.4205C24.2933 14.1829 24.1916 14.2253 24.1153 14.3101C24.039 14.3949 23.9966 14.4966 23.9966 14.6323C23.9966 14.7425 24.0305 14.8273 24.0983 14.8951C24.1577 14.9544 24.234 14.9884 24.3357 14.9884H24.5053C24.4968 15.1494 24.412 15.2596 24.2594 15.3275L24.2933 15.3953C24.5137 15.3359 24.6409 15.2003 24.6748 14.9884H25.548H26.6162H26.9469C27.108 14.9884 27.2097 14.8866 27.2097 14.7171V13.793L26.9977 13.8438L27.0317 14.0897ZM24.4883 14.8273H24.3357C24.2255 14.8273 24.1661 14.751 24.1661 14.6068C24.1661 14.4119 24.2509 14.3016 24.395 14.3016H24.4883V14.8273Z" fill="#4D4D4F"/>
<path d="M27.4141 13.8262L27.4395 14.0551V14.9962H27.6175V14.0466L27.6345 13.8008L27.4141 13.8262Z" fill="#4D4D4F"/>
<path d="M28.6112 14.5974C28.6705 14.5974 28.7214 14.5465 28.7214 14.4872C28.7214 14.4193 28.6705 14.377 28.6112 14.377C28.5518 14.377 28.501 14.4278 28.501 14.4872C28.501 14.555 28.5518 14.5974 28.6112 14.5974Z" fill="#939598"/>
<path d="M30.823 14.1901H30.4923L30.6534 14.0205L30.9077 13.8086H30.6534C30.5432 13.9527 30.3736 14.1308 30.1617 14.3512H30.789C30.9925 14.3512 31.0942 14.419 31.0942 14.5631V14.8344H29.28C29.1952 14.8344 29.1528 14.7751 29.1528 14.6479V14.224L28.9409 14.2749L28.9748 14.5207V14.8429C28.9748 14.9785 28.9409 15.0887 28.873 15.182C28.8052 15.2583 28.7289 15.3007 28.6357 15.3007C28.4152 15.3007 28.2796 15.1227 28.2796 14.8344V14.5038H28.1016V14.8429C28.1016 15.0209 28.144 15.1566 28.2203 15.2583C28.305 15.3685 28.4407 15.4194 28.6102 15.4194C28.907 15.4194 29.1019 15.2583 29.1443 15.004C29.1783 15.0124 29.2037 15.0124 29.2376 15.0124H29.3563H31.2638V14.5462C31.2638 14.3342 31.1027 14.207 30.823 14.207V14.1901Z" fill="#939598"/>
<path d="M31.5264 14.2664L31.5603 14.5122V14.97C31.5603 15.1566 31.4755 15.2752 31.3145 15.3261L31.3484 15.3939C31.6027 15.3176 31.7299 15.1566 31.7299 14.9107V14.207L31.5179 14.2579L31.5264 14.2664Z" fill="#939598"/>
<path style="mix-blend-mode:screen" d="M29.6943 7.28111L27.5918 8.17129C27.5918 8.17129 27.8122 8.25607 29.2874 7.63718C29.7028 7.46763 30.1521 7.35742 30.4827 7.53545C31.0762 7.84913 31.3984 7.92543 31.3984 7.92543C30.8727 7.54393 30.7964 7.48458 30.6862 7.40828C30.6184 7.35741 30.2454 7.0183 29.7028 7.28959L29.6943 7.28111Z" fill="url(#paint16_linear_2320_28035)"/>
<path style="mix-blend-mode:screen" d="M24.0408 10.3079L26.2789 10.7911C26.2789 10.7911 26.1518 10.5961 24.5834 10.2485C24.151 10.1553 23.7186 9.97725 23.5491 9.64661C23.2439 9.05316 23.0234 8.79883 23.0234 8.79883C23.2354 9.40923 23.2608 9.50249 23.3032 9.63814C23.3286 9.71444 23.4389 10.2146 24.0408 10.3079Z" fill="url(#paint17_linear_2320_28035)"/>
<path style="mix-blend-mode:screen" d="M25.7602 6.75502L25.9891 9.02709C25.9891 9.02709 26.1332 8.84058 25.9806 7.24674C25.9382 6.80589 25.9721 6.33961 26.2349 6.07679C26.7097 5.60203 26.8793 5.32227 26.8793 5.32227C26.3621 5.71225 26.2858 5.77159 26.1671 5.84789C26.0993 5.89028 25.6669 6.15309 25.7602 6.75502Z" fill="url(#paint18_linear_2320_28035)"/>
<path style="mix-blend-mode:screen" d="M26.8377 13.0538L28.0077 11.0869C28.0077 11.0869 27.7873 11.1463 26.9564 12.5282C26.7275 12.9097 26.4223 13.2657 26.0578 13.3166C25.3965 13.4183 25.0913 13.5455 25.0913 13.5455C25.7356 13.5455 25.8374 13.5455 25.973 13.5455C26.0493 13.5455 26.558 13.6048 26.8377 13.0623V13.0538Z" fill="url(#paint19_linear_2320_28035)"/>
<path style="mix-blend-mode:screen" d="M30.3992 11.2318L28.8901 9.51074C28.8901 9.51074 28.8817 9.73965 29.9329 10.952C30.2212 11.2911 30.467 11.6811 30.4077 12.0541C30.2975 12.7154 30.3229 13.046 30.3229 13.046C30.5179 12.4271 30.5518 12.3339 30.5942 12.2067C30.6196 12.1304 30.8316 11.6641 30.3992 11.2318Z" fill="url(#paint20_linear_2320_28035)"/>
<defs>
<linearGradient id="paint0_linear_2320_28035" x1="-95.2181" y1="32.2392" x2="109.726" y2="32.2392" gradientUnits="userSpaceOnUse">
<stop stop-color="#9CB429"/>
<stop offset="0.19" stop-color="#A5B925"/>
<stop offset="0.51" stop-color="#BDC91A"/>
<stop offset="0.91" stop-color="#E5E208"/>
<stop offset="1" stop-color="#F0E904"/>
</linearGradient>
<linearGradient id="paint1_linear_2320_28035" x1="28.0577" y1="8.62876" x2="28.4647" y2="5.33087" gradientUnits="userSpaceOnUse">
<stop stop-color="#2A4100"/>
<stop offset="0.14" stop-color="#3E570F"/>
<stop offset="1" stop-color="#87BA3E"/>
</linearGradient>
<linearGradient id="paint2_linear_2320_28035" x1="28.7536" y1="9.07905" x2="30.1948" y2="7.02741" gradientUnits="userSpaceOnUse">
<stop stop-color="#72922C"/>
<stop offset="0.17" stop-color="#B1D13E"/>
<stop offset="1" stop-color="#72922C"/>
</linearGradient>
<linearGradient id="paint3_linear_2320_28035" x1="23.252" y1="8.16237" x2="26.6855" y2="8.16237" gradientUnits="userSpaceOnUse">
<stop stop-color="#0093CA"/>
<stop offset="0.81" stop-color="#005578"/>
<stop offset="1" stop-color="#004563"/>
</linearGradient>
<linearGradient id="paint4_linear_2320_28035" x1="27.1941" y1="8.20513" x2="25.6766" y2="6.19588" gradientUnits="userSpaceOnUse">
<stop stop-color="#0079A7"/>
<stop offset="0.2" stop-color="#00B6F1"/>
<stop offset="1" stop-color="#0079A7"/>
</linearGradient>
<linearGradient id="paint5_linear_2320_28035" x1="24.0663" y1="11.4863" x2="26.3468" y2="11.4863" gradientUnits="userSpaceOnUse">
<stop stop-color="#0C8376"/>
<stop offset="0.74" stop-color="#00413C"/>
<stop offset="0.97" stop-color="#001814"/>
</linearGradient>
<linearGradient id="paint6_linear_2320_28035" x1="23.497" y1="10.2307" x2="25.8453" y2="9.38287" gradientUnits="userSpaceOnUse">
<stop offset="0.1" stop-color="#0F7B74"/>
<stop offset="0.8" stop-color="#00B7A6"/>
<stop offset="1" stop-color="#0F7B74"/>
</linearGradient>
<linearGradient id="paint7_linear_2320_28035" x1="28.2369" y1="13.5466" x2="28.3217" y2="11.0456" gradientUnits="userSpaceOnUse">
<stop stop-color="#262626"/>
<stop offset="1" stop-color="#0A0A0A"/>
</linearGradient>
<linearGradient id="paint8_linear_2320_28035" x1="26.5657" y1="13.5547" x2="26.5657" y2="11.0368" gradientUnits="userSpaceOnUse">
<stop stop-color="#6E6E6E"/>
<stop offset="0.78" stop-color="#CFCFCF"/>
<stop offset="1" stop-color="#6E6E6E"/>
</linearGradient>
<linearGradient id="paint9_linear_2320_28035" x1="28.6267" y1="9.71386" x2="31.7212" y2="9.71386" gradientUnits="userSpaceOnUse">
<stop stop-color="#511900"/>
<stop offset="0.24" stop-color="#86371C"/>
<stop offset="1" stop-color="#F04C29"/>
</linearGradient>
<linearGradient id="paint10_linear_2320_28035" x1="28.3806" y1="10.8576" x2="30.7968" y2="11.6375" gradientUnits="userSpaceOnUse">
<stop stop-color="#DF752C"/>
<stop offset="0.21" stop-color="#FBB217"/>
<stop offset="1" stop-color="#DF752C"/>
</linearGradient>
<radialGradient id="paint11_radial_2320_28035" cx="0" cy="0" r="1" gradientUnits="userSpaceOnUse" gradientTransform="translate(28.144 9.96038) scale(0.440849 0.440848)">
<stop stop-color="#F9A72E"/>
<stop offset="1" stop-color="#DF752C"/>
</radialGradient>
<radialGradient id="paint12_radial_2320_28035" cx="0" cy="0" r="1" gradientUnits="userSpaceOnUse" gradientTransform="translate(27.8471 9.06976) scale(0.440848)">
<stop stop-color="#B1D13E"/>
<stop offset="1" stop-color="#72922C"/>
</radialGradient>
<radialGradient id="paint13_radial_2320_28035" cx="0" cy="0" r="1" gradientUnits="userSpaceOnUse" gradientTransform="translate(26.8969 9.06976) scale(0.440849)">
<stop stop-color="#00B6F1"/>
<stop offset="1" stop-color="#008ABD"/>
</radialGradient>
<radialGradient id="paint14_radial_2320_28035" cx="0" cy="0" r="1" gradientUnits="userSpaceOnUse" gradientTransform="translate(26.5492 9.96038) scale(0.440848)">
<stop offset="0.01" stop-color="#21A89D"/>
<stop offset="1" stop-color="#0F7B74"/>
</radialGradient>
<radialGradient id="paint15_radial_2320_28035" cx="0" cy="0" r="1" gradientUnits="userSpaceOnUse" gradientTransform="translate(27.3559 10.5356) scale(0.440848)">
<stop stop-color="#C2C2C2"/>
<stop offset="1" stop-color="#6E6E6E"/>
</radialGradient>
<linearGradient id="paint16_linear_2320_28035" x1="29.4329" y1="8.38768" x2="29.6229" y2="7.05641" gradientUnits="userSpaceOnUse">
<stop stop-color="#231F20"/>
<stop offset="0.36" stop-color="#242021"/>
<stop offset="0.5" stop-color="#2B2728"/>
<stop offset="0.6" stop-color="#373334"/>
<stop offset="0.68" stop-color="#484546"/>
<stop offset="0.76" stop-color="#5E5B5C"/>
<stop offset="0.82" stop-color="#797777"/>
<stop offset="0.88" stop-color="#9A9898"/>
<stop offset="0.93" stop-color="#BFBEBF"/>
<stop offset="0.98" stop-color="#E9E8E8"/>
<stop offset="1" stop-color="white"/>
</linearGradient>
<linearGradient id="paint17_linear_2320_28035" x1="24.9187" y1="9.43352" x2="23.9968" y2="10.4125" gradientUnits="userSpaceOnUse">
<stop stop-color="#231F20"/>
<stop offset="0.36" stop-color="#242021"/>
<stop offset="0.5" stop-color="#2B2728"/>
<stop offset="0.6" stop-color="#373334"/>
<stop offset="0.68" stop-color="#484546"/>
<stop offset="0.76" stop-color="#5E5B5C"/>
<stop offset="0.82" stop-color="#797777"/>
<stop offset="0.88" stop-color="#9A9898"/>
<stop offset="0.93" stop-color="#BFBEBF"/>
<stop offset="0.98" stop-color="#E9E8E8"/>
<stop offset="1" stop-color="white"/>
</linearGradient>
<linearGradient id="paint18_linear_2320_28035" x1="26.7144" y1="7.50503" x2="25.4991" y2="6.9293" gradientUnits="userSpaceOnUse">
<stop stop-color="#231F20"/>
<stop offset="0.36" stop-color="#242021"/>
<stop offset="0.5" stop-color="#2B2728"/>
<stop offset="0.6" stop-color="#373334"/>
<stop offset="0.68" stop-color="#484546"/>
<stop offset="0.76" stop-color="#5E5B5C"/>
<stop offset="0.82" stop-color="#797777"/>
<stop offset="0.88" stop-color="#9A9898"/>
<stop offset="0.93" stop-color="#BFBEBF"/>
<stop offset="0.98" stop-color="#E9E8E8"/>
<stop offset="1" stop-color="white"/>
</linearGradient>
<linearGradient id="paint19_linear_2320_28035" x1="25.9356" y1="12.3412" x2="26.5725" y2="13.5349" gradientUnits="userSpaceOnUse">
<stop stop-color="#231F20"/>
<stop offset="0.36" stop-color="#242021"/>
<stop offset="0.5" stop-color="#2B2728"/>
<stop offset="0.6" stop-color="#373334"/>
<stop offset="0.68" stop-color="#484546"/>
<stop offset="0.76" stop-color="#5E5B5C"/>
<stop offset="0.82" stop-color="#797777"/>
<stop offset="0.88" stop-color="#9A9898"/>
<stop offset="0.93" stop-color="#BFBEBF"/>
<stop offset="0.98" stop-color="#E9E8E8"/>
<stop offset="1" stop-color="white"/>
</linearGradient>
<linearGradient id="paint20_linear_2320_28035" x1="29.0797" y1="11.6494" x2="30.4033" y2="11.4119" gradientUnits="userSpaceOnUse">
<stop stop-color="#231F20"/>
<stop offset="0.36" stop-color="#242021"/>
<stop offset="0.5" stop-color="#2B2728"/>
<stop offset="0.6" stop-color="#373334"/>
<stop offset="0.68" stop-color="#484546"/>
<stop offset="0.76" stop-color="#5E5B5C"/>
<stop offset="0.82" stop-color="#797777"/>
<stop offset="0.88" stop-color="#9A9898"/>
<stop offset="0.93" stop-color="#BFBEBF"/>
<stop offset="0.98" stop-color="#E9E8E8"/>
<stop offset="1" stop-color="white"/>
</linearGradient>
</defs>
</svg>
