<svg width="178" height="39" viewBox="0 0 178 39" fill="none" xmlns="http://www.w3.org/2000/svg">
<path d="M7.10253 13.7955C7.53627 14.1967 7.53627 14.663 7.53627 15.8341H7.21097C7.10254 14.4895 6.19169 14.0883 4.98807 14.0883C3.2748 14.0883 2.51576 15.2485 2.51576 17.1028C2.51576 18.816 3.10131 19.9004 4.44589 20.1606H8.69652V21.0715H0.043457V20.1606H2.29889C1.17117 19.4666 0.5531 18.5232 0.5531 17.1028C0.5531 14.9232 2.04949 13.21 4.66276 13.21C5.82301 13.21 6.70133 13.3943 7.10253 13.7955Z" fill="white"/>
<path d="M15.1807 5.68401C13.7602 5.68401 13.5759 6.33462 13.5759 7.32137V20.16H16.7747V21.0709H10.8867V5.32617H15.1807V5.69485V5.68401Z" fill="white"/>
<path d="M22.5546 5.61888C21.5027 5.61888 21.3184 6.23695 21.3184 7.2237V11.2249L21.4268 11.1165C21.969 10.5743 23.0317 10.3575 24.5931 10.3575H33.6799C35.4257 10.3575 36.8462 10.943 37.8221 11.9189C38.8089 12.9057 39.3077 14.2503 39.3077 15.7033C39.3077 17.59 38.4293 19.1949 36.9438 20.1708H42.5065V21.0816H15.3003V20.1708H18.575V5.22852H22.9015V5.62972H22.5329L22.5546 5.61888ZM24.3004 11.5069C22.7389 11.5069 21.5027 12.049 21.3184 13.7948V20.1599H33.3871C35.6101 20.0515 36.6185 18.1647 36.6185 15.6924C36.6185 13.2201 35.5233 11.5069 33.2028 11.5069H24.2895H24.3004Z" fill="white"/>
<path d="M53.4689 10.8558C54.0869 11.398 54.0869 12.0594 54.0869 13.7619H53.6098C53.4689 11.8751 52.2327 11.257 50.5194 11.257C48.0797 11.257 47.0279 12.9269 47.0279 15.551C47.0279 16.7547 47.2447 17.839 47.7218 18.6739C48.1989 19.5089 48.9255 20.0185 49.9447 20.1703H57.2857V21.0812H41.064V20.1703H46.7785C45.1736 19.1836 44.3062 17.5571 44.3062 15.551C44.3062 14.0546 44.8158 12.6775 45.8351 11.6908C46.8218 10.704 48.2315 10.0859 50.0206 10.0859C51.8098 10.0859 52.8942 10.3028 53.4797 10.845L53.4689 10.8558Z" fill="white"/>
<path d="M64.0514 5.72738C62.6309 5.72738 62.4465 6.34545 62.4465 7.33221V16.0286C62.4465 17.5901 61.9694 18.8263 61.1345 19.7046C60.2995 20.572 59.2043 21.0817 57.9031 21.0817H55.832V20.1708H56.4501C57.2091 20.1708 58.0549 19.9214 58.6296 19.3359C59.2152 18.7503 59.6164 17.8503 59.7248 16.4949V5.32617H64.0514V5.72738Z" fill="white"/>
<path d="M69.9722 5.68401C68.5517 5.68401 68.4108 6.33462 68.4108 7.32137V21.0709H65.6782V5.32617L69.9722 5.3587V5.68401Z" fill="white"/>
<path d="M90.6284 10.7481C89.5766 10.7481 89.3923 11.3987 89.3923 12.3854V20.171H92.6236V21.0819H83.6778C82.2248 21.0493 80.7284 20.4963 79.5681 19.553C78.4079 18.6096 77.6055 17.2975 77.6055 15.7035C77.6055 12.4613 80.5874 10.3902 85.2826 10.3902H90.9971V10.7589H90.6284V10.7481ZM86.6597 11.6915C85.2392 11.2577 83.6453 11.3228 82.3657 12.0168C81.0971 12.7107 80.2187 13.9469 80.2187 15.7252C80.2187 16.9939 80.5874 18.0566 81.2055 18.8481C81.791 19.6505 82.6585 20.1602 83.6778 20.1602H86.6597V11.6915ZM83.3525 6.99625C83.3525 7.72276 82.7669 8.34084 82.0079 8.34084C81.2489 8.34084 80.6633 7.72276 80.6633 6.99625C80.6633 6.23721 81.2489 5.61914 82.0079 5.61914C82.7669 5.61914 83.3525 6.23721 83.3525 6.99625ZM86.7682 6.99625C86.7682 7.72276 86.1501 8.34084 85.3911 8.34084C84.632 8.34084 84.0465 7.72276 84.0465 6.99625C84.0465 6.23721 84.6645 5.61914 85.3911 5.61914C86.1501 5.61914 86.7682 6.23721 86.7682 6.99625Z" fill="white"/>
<path d="M98.9891 10.813C97.8614 10.813 97.753 11.4636 97.753 12.4504V15.8335C97.753 17.4384 97.1349 18.7396 96.2566 19.6179C95.3891 20.5287 94.2614 21.0709 93.1987 21.0709H91.1602V20.1601H91.7457C92.5047 20.1601 93.3071 19.9432 93.9252 19.3576C94.5108 18.7721 94.912 17.8721 95.0204 16.5167V10.4443H99.3469V10.813H98.9783H98.9891ZM97.753 24.5191C97.753 25.2782 97.1349 25.8962 96.3758 25.8962C95.6168 25.8962 95.0313 25.2782 95.0313 24.5191C95.0313 23.7601 95.6493 23.1745 96.3758 23.1745C97.1349 23.1745 97.753 23.7926 97.753 24.5191Z" fill="white"/>
<path d="M105.279 5.68401C103.858 5.68401 103.717 6.33462 103.717 7.32137V21.0709H100.985V5.32617L105.279 5.3587V5.68401Z" fill="white"/>
<path d="M118.303 10.6716C117.251 10.6716 117.067 11.2897 117.067 12.2764V20.1705H120.265V21.0813H116.991V21.591C116.991 23.5211 116.123 24.6813 115.104 25.3753C114.052 26.1018 112.881 26.3621 112.306 26.503C112.122 26.5356 111.981 26.5356 111.938 26.4705C111.862 26.438 111.905 26.3621 112.013 26.2862C113.065 25.7006 113.651 24.8657 113.976 23.9548C114.301 23.0765 114.377 22.0681 114.377 21.0813H112.491C110.344 21.0813 108.565 20.4958 107.286 19.5524C106.017 18.609 105.291 17.297 105.291 15.703C105.291 12.3957 108.272 10.2812 112.968 10.2812H118.682V10.6825H118.313L118.303 10.6716ZM107.904 15.6921C107.904 18.4572 109.65 20.0187 111.981 20.2789H114.345V11.5825C113.759 11.3981 113.185 11.3331 112.566 11.3331C109.834 11.3331 107.915 12.7861 107.915 15.6921H107.904Z" fill="white"/>
<path d="M126.629 10.813C125.502 10.813 125.393 11.4636 125.393 12.4504V15.8335C125.393 17.4384 124.775 18.7396 123.897 19.6179C123.029 20.5287 121.902 21.0709 120.839 21.0709H118.8V20.1601H119.386C120.145 20.1601 120.947 19.9432 121.565 19.3576C122.151 18.7721 122.552 17.8721 122.661 16.5167V10.4443H126.987V10.813H126.618H126.629ZM125.393 24.5191C125.393 25.2782 124.775 25.8962 124.016 25.8962C123.257 25.8962 122.671 25.2782 122.671 24.5191C122.671 23.7601 123.289 23.1745 124.016 23.1745C124.775 23.1745 125.393 23.7926 125.393 24.5191Z" fill="white"/>
<path d="M6.54852 29.9517V31.0143H5.0955L4.71598 31.8167L1.97259 30.2878L2.04849 29.6047C1.86415 29.6806 1.7015 29.7782 1.54969 29.8975C1.39788 30.0167 1.25692 30.1252 1.11595 30.2228L1.26777 32.2071C1.26777 32.2071 1.26776 32.3155 1.27861 32.3698V32.4674C1.27861 32.6842 1.22439 32.9228 1.10511 33.1613C1.00752 33.3674 0.931616 33.5192 0.866555 33.6276L0.703906 33.8987L0.454508 31.3939C0.421977 31.1119 0.411133 30.9384 0.411133 30.8734C0.411133 30.7107 0.487038 30.4396 0.64969 30.0493C0.844872 29.5613 1.10511 29.2143 1.44126 28.9975C1.86415 28.7264 2.54729 28.4878 3.47982 28.2709C3.9244 28.1734 4.29308 28.1191 4.57501 28.1191C4.83526 28.1191 5.01959 28.1625 5.10634 28.2601C5.20393 28.3577 5.2473 28.5529 5.2473 28.8348V29.9734H6.53767L6.54852 29.9517ZM4.64007 30.5589V29.442C4.64007 29.2685 4.60754 29.1601 4.55333 29.1059C4.49911 29.0517 4.37983 29.0191 4.19549 29.0191C3.64247 29.0191 3.1003 29.1493 2.56897 29.3987L4.62923 30.5589H4.64007Z" fill="white"/>
<path d="M10.0189 29.9521V31.0148H6.37549V29.9521H10.0189Z" fill="white"/>
<path d="M13.39 29.9521V31.0148H9.74658V29.9521H13.39Z" fill="white"/>
<path d="M16.7533 29.9521V31.0148H13.1099V29.9521H16.7533Z" fill="white"/>
<path d="M16.482 29.9523H18.282C18.2604 29.5186 18.1194 29.1174 17.8592 28.7595L18.4447 27.9571C18.7917 28.3692 18.9652 28.8029 18.9652 29.2583C18.9652 29.5294 18.8893 29.8872 18.7266 30.3101C18.6833 30.4511 18.5965 30.6788 18.4555 31.0041H16.4712V29.9415L16.482 29.9523ZM18.9543 26.3848L18.7483 26.9053C18.2061 26.9812 17.7832 27.2089 17.4579 27.5776C17.4905 27.3174 17.5989 27.0896 17.7832 26.8836C17.5013 26.8294 17.3604 26.6559 17.3604 26.3848C17.3604 26.1788 17.4796 25.9402 17.7073 25.6692C17.8917 25.4414 18.1411 25.333 18.4664 25.333C18.6616 25.333 18.7592 25.3981 18.7592 25.5282C18.7592 25.6258 18.7049 25.7559 18.6074 25.9077C18.5098 25.8752 18.423 25.8643 18.3471 25.8643C18.076 25.8643 17.8483 25.9728 17.6748 26.1896C17.8917 26.3848 18.1628 26.4824 18.4881 26.4824C18.629 26.4824 18.7808 26.4499 18.9543 26.3848Z" fill="white"/>
<path d="M19.9952 31.3832C20.0385 30.8085 20.0602 30.3097 20.0602 29.9193C20.0602 29.388 20.0385 28.6615 19.9843 27.7615C19.941 27.0133 19.8867 26.4603 19.8325 26.0807L20.7325 24.9639L20.9494 26.2976L20.7434 26.5362V26.6663C20.8193 27.4795 20.8626 28.1518 20.8626 28.6832C20.8626 29.2145 20.8084 29.6808 20.6892 30.0928C20.6024 30.3964 20.3747 30.8302 19.9952 31.394V31.3832Z" fill="white"/>
<path d="M23.0426 27.6857C23.9209 28.0652 24.3546 28.6182 24.3546 29.3447C24.3546 29.6266 24.2896 29.9411 24.1594 30.2881L23.8775 31.0037H21.6221L21.8606 29.9411H23.6932C23.6715 29.5724 23.5847 29.2905 23.4329 29.0736C23.2811 28.8676 23.01 28.6724 22.6305 28.5098L23.0426 27.6748V27.6857Z" fill="white"/>
<path d="M31.4455 31.0144L31.3913 31.1771L31.2287 31.7192C31.1744 31.9144 31.0769 32.1313 30.9576 32.3807C30.1552 32.9012 29.4395 33.1722 28.8106 33.1722C28.3768 33.1722 28.0082 33.0204 27.6937 32.706C27.3901 32.4024 27.2383 32.0228 27.2383 31.5783C27.2383 30.971 27.4552 30.1795 27.8997 29.2144C27.7588 29.865 27.6937 30.3855 27.6937 30.765C27.6937 31.1879 27.8021 31.524 28.019 31.7734C28.2359 32.0228 28.5178 32.153 28.8756 32.153C29.1793 32.153 29.5046 32.0771 29.8515 31.9361C30.1985 31.7951 30.5022 31.5999 30.7516 31.3614L30.7082 25.8963L31.5865 24.9746V29.9626H32.8227V31.0252H31.4347L31.4455 31.0144Z" fill="white"/>
<path d="M36.3138 29.9521V31.0148H32.6704V29.9521H36.3138Z" fill="white"/>
<path d="M43.4703 31.0146H38.0052L37.8968 30.646L37.5715 31.0146H36.0317V29.952H37.7016L37.4956 29.2472L38.1679 28.6291L38.5583 29.952L40.8679 28.4773C41.0089 28.3905 41.1824 28.2821 41.4101 28.152C41.833 27.8917 42.1474 27.7725 42.3643 27.7725C42.6788 27.7725 43.0258 27.9676 43.4161 28.3472C43.7523 28.6833 43.9258 29.0737 43.9258 29.5183C43.9258 29.6918 43.7956 30.1255 43.5246 30.8195L43.492 30.9171L43.4486 31.0146H43.4703ZM43.3511 29.952C43.2535 29.5833 43.0691 29.258 42.798 28.9869C42.527 28.7158 42.2559 28.5857 41.9848 28.5857C41.9197 28.5857 41.8655 28.5857 41.8113 28.6074C41.692 28.6399 41.4426 28.7701 41.0739 28.9869L40.5643 29.2905L40.2498 29.4966L39.5016 29.952H43.3402H43.3511Z" fill="white"/>
<path d="M44.8795 31.3832C44.9228 30.8085 44.9445 30.3097 44.9445 29.9193C44.9445 29.388 44.9228 28.6615 44.8686 27.7615C44.8252 27.0133 44.771 26.4603 44.7168 26.0807L45.6168 24.9639L45.8337 26.2976L45.6277 26.5362V26.6663C45.7036 27.4795 45.7469 28.1518 45.7469 28.6832C45.7469 29.2145 45.6927 29.6808 45.5734 30.0928C45.4867 30.3964 45.259 30.8302 44.8795 31.394V31.3832Z" fill="white"/>
<path d="M49.3263 29.952H50.595V31.0147H49.2829C49.2178 31.3508 49.0986 31.6978 48.9034 32.0448C48.4913 32.8364 48.0684 33.2267 47.6564 33.2267C47.3636 33.2267 46.9407 32.8689 46.3877 32.1641C46.6588 32.2617 46.8973 32.3159 47.1034 32.3159C47.4395 32.3159 47.754 32.1966 48.0467 31.9689C48.3395 31.7412 48.5455 31.4159 48.6974 31.0147H47.9275C47.6564 31.0147 47.472 31.0147 47.3745 30.993C47.1793 30.9605 47.0166 30.8737 46.8865 30.7219C46.7564 30.5701 46.6913 30.3858 46.6913 30.1797C46.6913 29.8761 46.7781 29.54 46.9407 29.1713C47.1034 28.8026 47.3202 28.4882 47.5696 28.2171C47.7214 28.0544 47.8949 27.9785 48.0793 27.9785C48.3504 27.9785 48.5998 28.1737 48.8492 28.5641C49.0986 28.9544 49.2504 29.4207 49.3154 29.952H49.3263ZM48.6323 29.952C48.5455 29.258 48.3395 28.9219 48.0142 28.9219C47.8732 28.9219 47.7431 28.9978 47.613 29.1496C47.4829 29.3014 47.4287 29.4532 47.4287 29.6267C47.4287 29.8544 47.5696 29.9629 47.8516 29.9629H48.6431L48.6323 29.952Z" fill="white"/>
<path d="M50.4313 29.952H52.2313C52.2313 29.5291 52.0795 29.1279 51.8084 28.7592L52.3939 27.9568C52.7409 28.3688 52.9144 28.8026 52.9144 29.258C52.9144 29.5182 52.8385 29.8761 52.6758 30.3098C52.6325 30.4508 52.5457 30.6785 52.4048 31.0038H50.4204V29.9411L50.4313 29.952ZM52.9361 26.7423L52.3722 27.2411L51.9276 26.8399L51.4722 27.2411L50.7891 26.5905L51.3529 26.1025L51.7758 26.4929L52.2421 26.1025L52.9361 26.7423Z" fill="white"/>
<path d="M153.247 0.462891V29.3485H154.218V2.463H168.588C169.791 2.463 170.77 3.4703 170.77 4.71675V34.8198C172.415 34.0444 174.538 32.6386 175.415 31.7255V4.91241C175.415 2.45575 173.487 0.462891 171.11 0.462891H153.254H153.247Z" fill="white"/>
<path d="M157.675 24.4492H155.922C155.733 24.4492 155.581 24.6014 155.581 24.7898C155.581 24.9782 155.733 25.1304 155.922 25.1304H157.675C157.864 25.1304 158.016 24.9782 158.016 24.7898C158.016 24.6014 157.864 24.4492 157.675 24.4492Z" fill="white"/>
<path d="M157.834 20.5148C157.704 20.3844 157.487 20.3844 157.356 20.5148C157.226 20.6453 157.226 20.8627 157.356 20.9931L158.595 22.2323C158.726 22.3628 158.943 22.3628 159.074 22.2323C159.204 22.1019 159.204 21.8845 159.074 21.754L157.834 20.5148Z" fill="white"/>
<path d="M165.907 20.5148C165.777 20.3844 165.559 20.3844 165.429 20.5148L164.19 21.754C164.059 21.8845 164.059 22.1019 164.19 22.2323C164.32 22.3628 164.537 22.3628 164.668 22.2323L165.907 20.9931C166.038 20.8627 166.038 20.6453 165.907 20.5148Z" fill="white"/>
<path d="M161.632 18.7393C161.443 18.7393 161.291 18.8914 161.291 19.0799V20.8336C161.291 21.022 161.443 21.1742 161.632 21.1742C161.82 21.1742 161.972 21.022 161.972 20.8336V19.0799C161.972 18.8914 161.82 18.7393 161.632 18.7393Z" fill="white"/>
<path d="M167.336 24.4492H165.582C165.393 24.4492 165.241 24.6014 165.241 24.7898C165.241 24.9782 165.393 25.1304 165.582 25.1304H167.336C167.524 25.1304 167.676 24.9782 167.676 24.7898C167.676 24.6014 167.524 24.4492 167.336 24.4492Z" fill="white"/>
<path d="M169.342 35.2837C169.429 34.646 169.487 33.8706 169.487 33.5082V30.0878C169.487 29.4718 168.987 28.9718 168.371 28.9718C167.755 28.9718 167.255 29.4718 167.255 30.0878V29.6964C167.255 29.0805 166.755 28.5804 166.139 28.5804C165.523 28.5804 165.023 29.0805 165.023 29.6964V29.3051C165.023 28.6891 164.523 28.1891 163.907 28.1891C163.291 28.1891 162.791 28.6891 162.791 29.3051V24.1092C162.791 23.4932 162.291 22.9932 161.675 22.9932C161.059 22.9932 160.559 23.4932 160.559 24.1092V30.6747C160.559 31.4067 160.204 31.4429 159.907 31.1458L159.501 30.74C157.733 28.9718 155.957 30.3486 156.392 30.7834L157.841 32.2328C158.566 32.9575 159.508 33.7909 160.9 35.4938C161.132 35.7765 161.291 36.1388 161.4 36.5229C161.682 36.5374 161.958 36.5446 162.24 36.5446C164.74 36.5446 167.132 36.0953 169.342 35.2837Z" fill="white"/>
<path d="M169.343 35.8778C167.132 36.6894 164.734 37.1387 162.241 37.1387C161.958 37.1387 161.683 37.1314 161.4 37.117C150.668 36.6894 142.058 28.0512 141.66 17.3115C141.653 17.5724 141.638 17.826 141.638 18.0869C141.638 29.4644 150.863 38.6895 162.241 38.6895C167.248 38.6895 171.835 36.8995 175.408 33.9284V32.3631C173.618 33.8559 171.567 35.0516 169.343 35.8705V35.8778Z" fill="white"/>
<path d="M162.972 7.76025L162.53 7.43414L162.762 4.92676L163.465 5.44128C163.668 5.59346 163.784 5.83985 163.762 6.09349L163.639 7.46313C163.61 7.78199 163.24 7.94866 162.98 7.76025H162.972Z" fill="white"/>
<path d="M165.878 7.21635L165.175 6.70183C164.972 6.54965 164.697 6.52066 164.465 6.62212L162.523 7.441L163.219 7.94827C163.429 8.10046 163.704 8.13669 163.943 8.03524L165.878 7.2236V7.21635Z" fill="white"/>
<path d="M161.654 7.90497L161.211 8.23107L158.885 7.26L159.588 6.74548C159.791 6.5933 160.066 6.56432 160.298 6.65852L161.567 7.18754C161.864 7.31073 161.907 7.70931 161.654 7.90497Z" fill="white"/>
<path d="M162.008 4.96232L161.306 5.47684C161.103 5.62903 160.987 5.87542 161.016 6.12905L161.211 8.22337L161.907 7.70885C162.117 7.55667 162.226 7.30303 162.204 7.04215L162.008 4.95508V4.96232Z" fill="white"/>
<path d="M161.357 9.17981L161.531 9.70158L159.893 11.6147L159.618 10.7886C159.538 10.5495 159.589 10.2813 159.755 10.0857L160.654 9.04212C160.864 8.79573 161.255 8.87545 161.357 9.17981Z" fill="white"/>
<path d="M158.668 7.94141L158.958 8.79653C159.03 9.02118 159.219 9.18785 159.443 9.23858L161.53 9.70237L161.255 8.88349C161.175 8.6371 160.965 8.45593 160.711 8.39795L158.661 7.94141H158.668Z" fill="white"/>
<path d="M162.458 9.87598H163.009L164.299 12.0355H163.429C163.176 12.0355 162.937 11.8978 162.806 11.6804L162.103 10.4992C161.936 10.2238 162.139 9.87598 162.458 9.87598Z" fill="white"/>
<path d="M160.428 12.0287H161.298C161.551 12.0287 161.791 11.8982 161.921 11.6736L163.008 9.86914H162.146C161.885 9.86914 161.646 10.0068 161.515 10.2242L160.435 12.0214L160.428 12.0287Z" fill="white"/>
<path d="M163.501 9.02102L163.668 8.49925L166.117 7.92676L165.849 8.75289C165.77 8.99928 165.574 9.18045 165.32 9.23842L163.98 9.55004C163.668 9.6225 163.393 9.32538 163.494 9.02102H163.501Z" fill="white"/>
<path d="M164.937 11.6151L165.205 10.789C165.284 10.5426 165.226 10.2817 165.06 10.0861L163.676 8.49902L163.415 9.31791C163.335 9.5643 163.393 9.83243 163.56 10.0281L164.944 11.6079L164.937 11.6151Z" fill="white"/>
<path d="M163.444 8.95593C163.444 9.16609 163.277 9.33276 163.067 9.33276C162.857 9.33276 162.69 9.16609 162.69 8.95593C162.69 8.74577 162.857 8.5791 163.067 8.5791C163.277 8.5791 163.444 8.74577 163.444 8.95593Z" fill="white"/>
<path d="M163.191 8.19519C163.191 8.40535 163.024 8.57202 162.814 8.57202C162.604 8.57202 162.437 8.40535 162.437 8.19519C162.437 7.98504 162.604 7.81836 162.814 7.81836C163.024 7.81836 163.191 7.98504 163.191 8.19519Z" fill="white"/>
<path d="M162.378 8.19519C162.378 8.40535 162.211 8.57202 162.001 8.57202C161.791 8.57202 161.625 8.40535 161.625 8.19519C161.625 7.98504 161.791 7.81836 162.001 7.81836C162.211 7.81836 162.378 7.98504 162.378 8.19519Z" fill="white"/>
<path d="M162.081 8.95593C162.081 9.16609 161.914 9.33276 161.704 9.33276C161.494 9.33276 161.327 9.16609 161.327 8.95593C161.327 8.74577 161.494 8.5791 161.704 8.5791C161.914 8.5791 162.081 8.74577 162.081 8.95593Z" fill="white"/>
<path d="M162.77 9.4491C162.77 9.65926 162.604 9.82593 162.393 9.82593C162.183 9.82593 162.017 9.65926 162.017 9.4491C162.017 9.23894 162.183 9.07227 162.393 9.07227C162.604 9.07227 162.77 9.23894 162.77 9.4491Z" fill="white"/>
<path d="M158.863 12.8488V13.2401C158.863 13.3995 158.798 13.501 158.653 13.5445L158.682 13.6024C158.899 13.5372 159.008 13.3995 159.008 13.1894V12.5879L158.827 12.6314L158.856 12.8415L158.863 12.8488Z" fill="white"/>
<path d="M159.204 12.4567V13.261H159.356V12.4494L159.371 12.2393L159.182 12.261L159.204 12.4567Z" fill="white"/>
<path d="M162.116 12.4861V12.9861C162.116 13.073 162.08 13.1165 162.008 13.1165H161.761H161.689C161.645 12.9933 161.58 12.8701 161.5 12.7614C161.392 12.6238 161.29 12.5513 161.189 12.5513C161.051 12.5513 160.95 12.6745 160.935 12.8846L161.095 12.8629C161.08 12.8194 161.073 12.7832 161.073 12.7542C161.073 12.6962 161.095 12.6672 161.138 12.6672C161.203 12.6672 161.276 12.7252 161.363 12.8412C161.428 12.9281 161.479 13.0223 161.515 13.1093H160.109V12.5658H159.884C159.776 12.5658 159.689 12.602 159.623 12.6745C159.558 12.7469 159.522 12.8339 159.522 12.9499C159.522 13.0441 159.551 13.1165 159.609 13.1745C159.66 13.2252 159.725 13.2542 159.812 13.2542H159.957C159.95 13.3919 159.877 13.4861 159.747 13.5441L159.776 13.6021C159.964 13.5513 160.073 13.4354 160.102 13.2542H160.848H161.761H162.044C162.182 13.2542 162.268 13.1673 162.268 13.0223V12.2324L162.087 12.2759L162.116 12.4861ZM159.942 13.1165H159.812C159.718 13.1165 159.667 13.0513 159.667 12.9281C159.667 12.7614 159.739 12.6672 159.863 12.6672H159.942V13.1165Z" fill="white"/>
<path d="M162.443 12.261L162.465 12.4567V13.261H162.617V12.4494L162.631 12.2393L162.443 12.261Z" fill="white"/>
<path d="M163.466 12.9208C163.517 12.9208 163.56 12.8774 163.56 12.8266C163.56 12.7687 163.517 12.7324 163.466 12.7324C163.415 12.7324 163.372 12.7759 163.372 12.8266C163.372 12.8846 163.415 12.9208 163.466 12.9208Z" fill="white"/>
<path d="M165.357 12.5732H165.074L165.212 12.4282L165.429 12.2471H165.212C165.118 12.3703 164.973 12.5224 164.792 12.7109H165.328C165.502 12.7109 165.589 12.7688 165.589 12.892V13.1239H164.038C163.966 13.1239 163.929 13.0732 163.929 12.9645V12.6022L163.748 12.6456L163.777 12.8558V13.1312C163.777 13.2471 163.748 13.3413 163.69 13.421C163.632 13.4863 163.567 13.5225 163.487 13.5225C163.299 13.5225 163.183 13.3703 163.183 13.1239V12.8413H163.031V13.1312C163.031 13.2834 163.067 13.3993 163.132 13.4863C163.205 13.5805 163.321 13.624 163.466 13.624C163.719 13.624 163.886 13.4863 163.922 13.2689C163.951 13.2761 163.973 13.2761 164.002 13.2761H164.103H165.734V12.8775C165.734 12.6964 165.596 12.5877 165.357 12.5877V12.5732Z" fill="white"/>
<path d="M165.958 12.6386L165.987 12.8488V13.2401C165.987 13.3995 165.914 13.501 165.776 13.5445L165.805 13.6024C166.023 13.5372 166.131 13.3995 166.131 13.1894V12.5879L165.95 12.6314L165.958 12.6386Z" fill="white"/>
<g style="mix-blend-mode:screen">
<path d="M164.392 6.66567L162.595 7.42659C162.595 7.42659 162.784 7.49905 164.045 6.97004C164.4 6.8251 164.784 6.7309 165.066 6.88308C165.574 7.15121 165.849 7.21643 165.849 7.21643C165.4 6.89032 165.334 6.8396 165.24 6.77437C165.182 6.73089 164.863 6.44102 164.4 6.67292L164.392 6.66567Z" fill="white"/>
</g>
<g style="mix-blend-mode:screen">
<path d="M159.56 9.25282L161.473 9.66588C161.473 9.66588 161.364 9.49921 160.023 9.20209C159.654 9.12237 159.284 8.97019 159.139 8.68757C158.878 8.18029 158.69 7.96289 158.69 7.96289C158.871 8.48466 158.893 8.56437 158.929 8.68032C158.951 8.74554 159.045 9.1731 159.56 9.25282Z" fill="white"/>
</g>
<g style="mix-blend-mode:screen">
<path d="M161.03 6.21689L161.225 8.15903C161.225 8.15903 161.349 7.9996 161.218 6.63721C161.182 6.26037 161.211 5.8618 161.436 5.63715C161.841 5.23133 161.986 4.99219 161.986 4.99219C161.544 5.32554 161.479 5.37627 161.378 5.44149C161.32 5.47772 160.95 5.70237 161.03 6.21689Z" fill="white"/>
</g>
<g style="mix-blend-mode:screen">
<path d="M161.951 11.6012L162.951 9.91992C162.951 9.91992 162.762 9.97065 162.052 11.1519C161.857 11.478 161.596 11.7823 161.284 11.8258C160.719 11.9128 160.458 12.0215 160.458 12.0215C161.009 12.0215 161.096 12.0215 161.212 12.0215C161.277 12.0215 161.712 12.0722 161.951 11.6084V11.6012Z" fill="white"/>
</g>
<g style="mix-blend-mode:screen">
<path d="M164.995 10.0434L163.705 8.57227C163.705 8.57227 163.698 8.76793 164.596 9.80422C164.843 10.0941 165.053 10.4274 165.002 10.7463C164.908 11.3115 164.93 11.5942 164.93 11.5942C165.096 11.0652 165.125 10.9854 165.162 10.8767C165.183 10.8115 165.365 10.4129 164.995 10.0434Z" fill="white"/>
</g>
</svg>
