<svg width="178" height="40" viewBox="0 0 178 40" fill="none" xmlns="http://www.w3.org/2000/svg">
<path d="M7.10253 14.2955C7.53627 14.6967 7.53627 15.163 7.53627 16.3341H7.21097C7.10254 14.9895 6.19169 14.5883 4.98807 14.5883C3.2748 14.5883 2.51576 15.7485 2.51576 17.6028C2.51576 19.316 3.10131 20.4004 4.44589 20.6606H8.69652V21.5715H0.043457V20.6606H2.29889C1.17117 19.9666 0.5531 19.0232 0.5531 17.6028C0.5531 15.4232 2.04949 13.71 4.66276 13.71C5.82301 13.71 6.70133 13.8943 7.10253 14.2955Z" fill="#687F1A"/>
<path d="M15.1807 6.18401C13.7602 6.18401 13.5759 6.83462 13.5759 7.82137V20.66H16.7747V21.5709H10.8867V5.82617H15.1807V6.19485V6.18401Z" fill="#687F1A"/>
<path d="M22.5546 6.11888C21.5027 6.11888 21.3184 6.73695 21.3184 7.7237V11.7249L21.4268 11.6165C21.969 11.0743 23.0317 10.8575 24.5931 10.8575H33.6799C35.4257 10.8575 36.8462 11.443 37.8221 12.4189C38.8089 13.4057 39.3077 14.7503 39.3077 16.2033C39.3077 18.09 38.4293 19.6949 36.9438 20.6708H42.5065V21.5816H15.3003V20.6708H18.575V5.72852H22.9015V6.12972H22.5329L22.5546 6.11888ZM24.3004 12.0069C22.7389 12.0069 21.5027 12.549 21.3184 14.2948V20.6599H33.3871C35.6101 20.5515 36.6185 18.6647 36.6185 16.1924C36.6185 13.7201 35.5233 12.0069 33.2028 12.0069H24.2895H24.3004Z" fill="#687F1A"/>
<path d="M53.4689 11.3558C54.0869 11.898 54.0869 12.5594 54.0869 14.2619H53.6098C53.4689 12.3751 52.2327 11.757 50.5194 11.757C48.0797 11.757 47.0279 13.4269 47.0279 16.051C47.0279 17.2547 47.2447 18.339 47.7218 19.1739C48.1989 20.0089 48.9255 20.5185 49.9447 20.6703H57.2857V21.5812H41.064V20.6703H46.7785C45.1736 19.6836 44.3062 18.0571 44.3062 16.051C44.3062 14.5546 44.8158 13.1775 45.8351 12.1908C46.8218 11.204 48.2315 10.5859 50.0206 10.5859C51.8098 10.5859 52.8942 10.8028 53.4797 11.345L53.4689 11.3558Z" fill="#687F1A"/>
<path d="M64.0514 6.22738C62.6309 6.22738 62.4465 6.84545 62.4465 7.83221V16.5286C62.4465 18.0901 61.9694 19.3263 61.1345 20.2046C60.2995 21.072 59.2043 21.5817 57.9031 21.5817H55.832V20.6708H56.4501C57.2091 20.6708 58.0549 20.4214 58.6296 19.8359C59.2152 19.2503 59.6164 18.3503 59.7248 16.9949V5.82617H64.0514V6.22738Z" fill="#687F1A"/>
<path d="M69.9722 6.18401C68.5517 6.18401 68.4108 6.83462 68.4108 7.82137V21.5709H65.6782V5.82617L69.9722 5.8587V6.18401Z" fill="#687F1A"/>
<path d="M90.6289 11.2481C89.5771 11.2481 89.3928 11.8987 89.3928 12.8854V20.671H92.6241V21.5819H83.6783C82.2253 21.5493 80.7289 20.9963 79.5686 20.053C78.4084 19.1096 77.606 17.7975 77.606 16.2035C77.606 12.9613 80.5879 10.8902 85.2831 10.8902H90.9976V11.2589H90.6289V11.2481ZM86.6602 12.1915C85.2397 11.7577 83.6458 11.8228 82.3662 12.5168C81.0975 13.2107 80.2192 14.4469 80.2192 16.2252C80.2192 17.4939 80.5879 18.5566 81.206 19.3481C81.7915 20.1505 82.659 20.6602 83.6783 20.6602H86.6602V12.1915ZM83.353 7.49625C83.353 8.22276 82.7674 8.84084 82.0084 8.84084C81.2493 8.84084 80.6638 8.22276 80.6638 7.49625C80.6638 6.73721 81.2493 6.11914 82.0084 6.11914C82.7674 6.11914 83.353 6.73721 83.353 7.49625ZM86.7687 7.49625C86.7687 8.22276 86.1506 8.84084 85.3915 8.84084C84.6325 8.84084 84.047 8.22276 84.047 7.49625C84.047 6.73721 84.665 6.11914 85.3915 6.11914C86.1506 6.11914 86.7687 6.73721 86.7687 7.49625Z" fill="#687F1A"/>
<path d="M98.9891 11.313C97.8614 11.313 97.753 11.9636 97.753 12.9504V16.3335C97.753 17.9384 97.1349 19.2396 96.2566 20.1179C95.3891 21.0287 94.2614 21.5709 93.1987 21.5709H91.1602V20.6601H91.7457C92.5047 20.6601 93.3071 20.4432 93.9252 19.8576C94.5108 19.2721 94.912 18.3721 95.0204 17.0167V10.9443H99.3469V11.313H98.9783H98.9891ZM97.753 25.0191C97.753 25.7782 97.1349 26.3962 96.3758 26.3962C95.6168 26.3962 95.0313 25.7782 95.0313 25.0191C95.0313 24.2601 95.6493 23.6745 96.3758 23.6745C97.1349 23.6745 97.753 24.2926 97.753 25.0191Z" fill="#687F1A"/>
<path d="M105.279 6.18401C103.858 6.18401 103.717 6.83462 103.717 7.82137V21.5709H100.985V5.82617L105.279 5.8587V6.18401Z" fill="#687F1A"/>
<path d="M118.303 11.1716C117.251 11.1716 117.067 11.7897 117.067 12.7764V20.6705H120.265V21.5813H116.991V22.091C116.991 24.0211 116.123 25.1813 115.104 25.8753C114.052 26.6018 112.881 26.8621 112.306 27.003C112.122 27.0356 111.981 27.0356 111.938 26.9705C111.862 26.938 111.905 26.8621 112.013 26.7862C113.065 26.2006 113.651 25.3657 113.976 24.4548C114.301 23.5765 114.377 22.5681 114.377 21.5813H112.491C110.344 21.5813 108.565 20.9958 107.286 20.0524C106.017 19.109 105.291 17.797 105.291 16.203C105.291 12.8957 108.272 10.7812 112.968 10.7812H118.682V11.1825H118.313L118.303 11.1716ZM107.904 16.1921C107.904 18.9572 109.65 20.5187 111.981 20.7789H114.345V12.0825C113.759 11.8981 113.185 11.8331 112.566 11.8331C109.834 11.8331 107.915 13.2861 107.915 16.1921H107.904Z" fill="#687F1A"/>
<path d="M126.629 11.313C125.502 11.313 125.393 11.9636 125.393 12.9504V16.3335C125.393 17.9384 124.775 19.2396 123.897 20.1179C123.029 21.0287 121.902 21.5709 120.839 21.5709H118.8V20.6601H119.386C120.145 20.6601 120.947 20.4432 121.565 19.8576C122.151 19.2721 122.552 18.3721 122.661 17.0167V10.9443H126.987V11.313H126.618H126.629ZM125.393 25.0191C125.393 25.7782 124.775 26.3962 124.016 26.3962C123.257 26.3962 122.671 25.7782 122.671 25.0191C122.671 24.2601 123.289 23.6745 124.016 23.6745C124.775 23.6745 125.393 24.2926 125.393 25.0191Z" fill="#687F1A"/>
<path d="M6.54852 30.4517V31.5143H5.0955L4.71598 32.3167L1.97259 30.7878L2.04849 30.1047C1.86415 30.1806 1.7015 30.2782 1.54969 30.3975C1.39788 30.5167 1.25692 30.6252 1.11595 30.7228L1.26777 32.7071C1.26777 32.7071 1.26776 32.8155 1.27861 32.8698V32.9674C1.27861 33.1842 1.22439 33.4228 1.10511 33.6613C1.00752 33.8674 0.931616 34.0192 0.866555 34.1276L0.703906 34.3987L0.454508 31.8939C0.421977 31.6119 0.411133 31.4384 0.411133 31.3734C0.411133 31.2107 0.487038 30.9396 0.64969 30.5493C0.844872 30.0613 1.10511 29.7143 1.44126 29.4975C1.86415 29.2264 2.54729 28.9878 3.47982 28.7709C3.9244 28.6734 4.29308 28.6191 4.57501 28.6191C4.83526 28.6191 5.01959 28.6625 5.10634 28.7601C5.20393 28.8577 5.2473 29.0529 5.2473 29.3348V30.4734H6.53767L6.54852 30.4517ZM4.64007 31.0589V29.942C4.64007 29.7685 4.60754 29.6601 4.55333 29.6059C4.49911 29.5517 4.37983 29.5191 4.19549 29.5191C3.64247 29.5191 3.1003 29.6493 2.56897 29.8987L4.62923 31.0589H4.64007Z" fill="#00AAAD"/>
<path d="M10.0189 30.4521V31.5148H6.37549V30.4521H10.0189Z" fill="#00AAAD"/>
<path d="M13.39 30.4521V31.5148H9.74658V30.4521H13.39Z" fill="#00AAAD"/>
<path d="M16.7533 30.4521V31.5148H13.1099V30.4521H16.7533Z" fill="#00AAAD"/>
<path d="M16.482 30.4523H18.282C18.2604 30.0186 18.1194 29.6174 17.8592 29.2595L18.4447 28.4571C18.7917 28.8692 18.9652 29.3029 18.9652 29.7583C18.9652 30.0294 18.8893 30.3872 18.7266 30.8101C18.6833 30.9511 18.5965 31.1788 18.4555 31.5041H16.4712V30.4415L16.482 30.4523ZM18.9543 26.8848L18.7483 27.4053C18.2061 27.4812 17.7832 27.7089 17.4579 28.0776C17.4905 27.8174 17.5989 27.5896 17.7832 27.3836C17.5013 27.3294 17.3604 27.1559 17.3604 26.8848C17.3604 26.6788 17.4796 26.4402 17.7073 26.1692C17.8917 25.9414 18.1411 25.833 18.4664 25.833C18.6616 25.833 18.7592 25.8981 18.7592 26.0282C18.7592 26.1258 18.7049 26.2559 18.6074 26.4077C18.5098 26.3752 18.423 26.3643 18.3471 26.3643C18.076 26.3643 17.8483 26.4728 17.6748 26.6896C17.8917 26.8848 18.1628 26.9824 18.4881 26.9824C18.629 26.9824 18.7808 26.9499 18.9543 26.8848Z" fill="#00AAAD"/>
<path d="M19.9952 31.8832C20.0385 31.3085 20.0602 30.8097 20.0602 30.4193C20.0602 29.888 20.0385 29.1615 19.9843 28.2615C19.941 27.5133 19.8867 26.9603 19.8325 26.5807L20.7325 25.4639L20.9494 26.7976L20.7434 27.0362V27.1663C20.8193 27.9795 20.8626 28.6518 20.8626 29.1832C20.8626 29.7145 20.8084 30.1808 20.6892 30.5928C20.6024 30.8964 20.3747 31.3302 19.9952 31.894V31.8832Z" fill="#00AAAD"/>
<path d="M23.0426 28.1857C23.9209 28.5652 24.3546 29.1182 24.3546 29.8447C24.3546 30.1266 24.2896 30.4411 24.1594 30.7881L23.8775 31.5037H21.6221L21.8606 30.4411H23.6932C23.6715 30.0724 23.5847 29.7905 23.4329 29.5736C23.2811 29.3676 23.01 29.1724 22.6305 29.0098L23.0426 28.1748V28.1857Z" fill="#00AAAD"/>
<path d="M31.4455 31.5144L31.3913 31.6771L31.2287 32.2192C31.1744 32.4144 31.0769 32.6313 30.9576 32.8807C30.1552 33.4012 29.4395 33.6722 28.8106 33.6722C28.3768 33.6722 28.0082 33.5204 27.6937 33.206C27.3901 32.9024 27.2383 32.5228 27.2383 32.0783C27.2383 31.471 27.4552 30.6795 27.8997 29.7144C27.7588 30.365 27.6937 30.8855 27.6937 31.265C27.6937 31.6879 27.8021 32.024 28.019 32.2734C28.2359 32.5228 28.5178 32.653 28.8756 32.653C29.1793 32.653 29.5046 32.5771 29.8515 32.4361C30.1985 32.2951 30.5022 32.0999 30.7516 31.8614L30.7082 26.3963L31.5865 25.4746V30.4626H32.8227V31.5252H31.4347L31.4455 31.5144Z" fill="#00AAAD"/>
<path d="M36.3138 30.4521V31.5148H32.6704V30.4521H36.3138Z" fill="#00AAAD"/>
<path d="M43.4703 31.5146H38.0052L37.8968 31.146L37.5715 31.5146H36.0317V30.452H37.7016L37.4956 29.7472L38.1679 29.1291L38.5583 30.452L40.8679 28.9773C41.0089 28.8905 41.1824 28.7821 41.4101 28.652C41.833 28.3917 42.1474 28.2725 42.3643 28.2725C42.6788 28.2725 43.0258 28.4676 43.4161 28.8472C43.7523 29.1833 43.9258 29.5737 43.9258 30.0183C43.9258 30.1918 43.7956 30.6255 43.5246 31.3195L43.492 31.4171L43.4486 31.5146H43.4703ZM43.3511 30.452C43.2535 30.0833 43.0691 29.758 42.798 29.4869C42.527 29.2158 42.2559 29.0857 41.9848 29.0857C41.9197 29.0857 41.8655 29.0857 41.8113 29.1074C41.692 29.1399 41.4426 29.2701 41.0739 29.4869L40.5643 29.7905L40.2498 29.9966L39.5016 30.452H43.3402H43.3511Z" fill="#00AAAD"/>
<path d="M44.8795 31.8832C44.9228 31.3085 44.9445 30.8097 44.9445 30.4193C44.9445 29.888 44.9228 29.1615 44.8686 28.2615C44.8252 27.5133 44.771 26.9603 44.7168 26.5807L45.6168 25.4639L45.8337 26.7976L45.6277 27.0362V27.1663C45.7036 27.9795 45.7469 28.6518 45.7469 29.1832C45.7469 29.7145 45.6927 30.1808 45.5734 30.5928C45.4867 30.8964 45.259 31.3302 44.8795 31.894V31.8832Z" fill="#00AAAD"/>
<path d="M49.3263 30.452H50.595V31.5147H49.2829C49.2178 31.8508 49.0986 32.1978 48.9034 32.5448C48.4913 33.3364 48.0684 33.7267 47.6564 33.7267C47.3636 33.7267 46.9407 33.3689 46.3877 32.6641C46.6588 32.7617 46.8973 32.8159 47.1034 32.8159C47.4395 32.8159 47.754 32.6966 48.0467 32.4689C48.3395 32.2412 48.5455 31.9159 48.6974 31.5147H47.9275C47.6564 31.5147 47.472 31.5147 47.3745 31.493C47.1793 31.4605 47.0166 31.3737 46.8865 31.2219C46.7564 31.0701 46.6913 30.8858 46.6913 30.6797C46.6913 30.3761 46.7781 30.04 46.9407 29.6713C47.1034 29.3026 47.3202 28.9882 47.5696 28.7171C47.7214 28.5544 47.8949 28.4785 48.0793 28.4785C48.3504 28.4785 48.5998 28.6737 48.8492 29.0641C49.0986 29.4544 49.2504 29.9207 49.3154 30.452H49.3263ZM48.6323 30.452C48.5455 29.758 48.3395 29.4219 48.0142 29.4219C47.8732 29.4219 47.7431 29.4978 47.613 29.6496C47.4829 29.8014 47.4287 29.9532 47.4287 30.1267C47.4287 30.3544 47.5696 30.4629 47.8516 30.4629H48.6431L48.6323 30.452Z" fill="#00AAAD"/>
<path d="M50.4313 30.452H52.2313C52.2313 30.0291 52.0795 29.6279 51.8084 29.2592L52.3939 28.4568C52.7409 28.8688 52.9144 29.3026 52.9144 29.758C52.9144 30.0182 52.8385 30.3761 52.6758 30.8098C52.6325 30.9508 52.5457 31.1785 52.4048 31.5038H50.4204V30.4411L50.4313 30.452ZM52.9361 27.2423L52.3722 27.7411L51.9276 27.3399L51.4722 27.7411L50.7891 27.0905L51.3529 26.6025L51.7758 26.9929L52.2421 26.6025L52.9361 27.2423Z" fill="#00AAAD"/>
<path d="M153.247 0.962891V29.8485H154.218V2.963H168.589C169.792 2.963 170.77 3.9703 170.77 5.21675V35.3198C172.415 34.5444 174.538 33.1386 175.415 32.2255V5.41241C175.415 2.95575 173.488 0.962891 171.111 0.962891H153.255H153.247Z" fill="#006991"/>
<path d="M157.676 24.9492H155.922C155.733 24.9492 155.581 25.1014 155.581 25.2898C155.581 25.4782 155.733 25.6304 155.922 25.6304H157.676C157.864 25.6304 158.016 25.4782 158.016 25.2898C158.016 25.1014 157.864 24.9492 157.676 24.9492Z" fill="#F7941D"/>
<path d="M157.835 21.0148C157.704 20.8844 157.487 20.8844 157.356 21.0148C157.226 21.1453 157.226 21.3627 157.356 21.4931L158.596 22.7323C158.726 22.8628 158.943 22.8628 159.074 22.7323C159.204 22.6019 159.204 22.3845 159.074 22.254L157.835 21.0148Z" fill="#F7941D"/>
<path d="M165.907 21.0148C165.777 20.8844 165.56 20.8844 165.429 21.0148L164.19 22.254C164.059 22.3845 164.059 22.6019 164.19 22.7323C164.32 22.8628 164.538 22.8628 164.668 22.7323L165.907 21.4931C166.038 21.3627 166.038 21.1453 165.907 21.0148Z" fill="#F7941D"/>
<path d="M161.632 19.2393C161.443 19.2393 161.291 19.3914 161.291 19.5799V21.3336C161.291 21.522 161.443 21.6742 161.632 21.6742C161.82 21.6742 161.972 21.522 161.972 21.3336V19.5799C161.972 19.3914 161.82 19.2393 161.632 19.2393Z" fill="#F7941D"/>
<path d="M167.336 24.9492H165.582C165.394 24.9492 165.241 25.1014 165.241 25.2898C165.241 25.4782 165.394 25.6304 165.582 25.6304H167.336C167.524 25.6304 167.676 25.4782 167.676 25.2898C167.676 25.1014 167.524 24.9492 167.336 24.9492Z" fill="#F7941D"/>
<path d="M169.342 35.7837C169.429 35.146 169.487 34.3706 169.487 34.0082V30.5878C169.487 29.9718 168.987 29.4718 168.371 29.4718C167.755 29.4718 167.255 29.9718 167.255 30.5878V30.1964C167.255 29.5805 166.755 29.0804 166.139 29.0804C165.523 29.0804 165.023 29.5805 165.023 30.1964V29.8051C165.023 29.1891 164.523 28.6891 163.907 28.6891C163.291 28.6891 162.791 29.1891 162.791 29.8051V24.6092C162.791 23.9932 162.291 23.4932 161.675 23.4932C161.059 23.4932 160.559 23.9932 160.559 24.6092V31.1747C160.559 31.9067 160.204 31.9429 159.907 31.6458L159.501 31.24C157.733 29.4718 155.957 30.8486 156.392 31.2834L157.841 32.7328C158.566 33.4575 159.508 34.2909 160.9 35.9938C161.132 36.2765 161.291 36.6388 161.4 37.0229C161.682 37.0374 161.958 37.0446 162.24 37.0446C164.74 37.0446 167.132 36.5953 169.342 35.7837Z" fill="#00AAAD"/>
<path d="M169.343 36.3778C167.133 37.1894 164.734 37.6387 162.241 37.6387C161.958 37.6387 161.683 37.6314 161.4 37.617C150.668 37.1894 142.059 28.5512 141.66 17.8115C141.653 18.0724 141.638 18.326 141.638 18.5869C141.638 29.9644 150.864 39.1895 162.241 39.1895C167.248 39.1895 171.836 37.3995 175.408 34.4284V32.8631C173.618 34.3559 171.568 35.5516 169.343 36.3705V36.3778Z" fill="url(#paint0_linear_272_26277)"/>
<path d="M162.972 8.26025L162.53 7.93414L162.762 5.42676L163.465 5.94128C163.668 6.09346 163.784 6.33985 163.762 6.59349L163.639 7.96313C163.61 8.28199 163.24 8.44866 162.98 8.26025H162.972Z" fill="url(#paint1_linear_272_26277)"/>
<path d="M165.879 7.71733L165.176 7.20281C164.973 7.05062 164.697 7.02164 164.466 7.12309L162.523 7.94197L163.219 8.44925C163.429 8.60143 163.705 8.63767 163.944 8.53621L165.879 7.72457V7.71733Z" fill="url(#paint2_linear_272_26277)"/>
<path d="M161.654 8.40595L161.212 8.73205L158.886 7.76098L159.589 7.24646C159.792 7.09428 160.067 7.06529 160.299 7.1595L161.567 7.68851C161.864 7.81171 161.908 8.21028 161.654 8.40595Z" fill="url(#paint3_linear_272_26277)"/>
<path d="M162.009 5.46232L161.306 5.97684C161.103 6.12903 160.987 6.37542 161.016 6.62905L161.212 8.72337L161.907 8.20885C162.118 8.05667 162.226 7.80303 162.205 7.54215L162.009 5.45508V5.46232Z" fill="url(#paint4_linear_272_26277)"/>
<path d="M161.357 9.68079L161.531 10.2026L159.893 12.1157L159.618 11.2896C159.538 11.0504 159.589 10.7823 159.755 10.5866L160.654 9.5431C160.864 9.29671 161.255 9.37642 161.357 9.68079Z" fill="url(#paint5_linear_272_26277)"/>
<path d="M158.668 8.44141L158.958 9.29653C159.03 9.52118 159.219 9.68785 159.444 9.73858L161.531 10.2024L161.255 9.38349C161.176 9.1371 160.965 8.95593 160.712 8.89795L158.661 8.44141H158.668Z" fill="url(#paint6_linear_272_26277)"/>
<path d="M162.458 10.376H163.009L164.299 12.5355H163.429C163.176 12.5355 162.937 12.3978 162.806 12.1804L162.103 10.9992C161.936 10.7238 162.139 10.376 162.458 10.376Z" fill="url(#paint7_linear_272_26277)"/>
<path d="M160.428 12.5287H161.298C161.552 12.5287 161.791 12.3982 161.921 12.1736L163.008 10.3691H162.146C161.885 10.3691 161.646 10.5068 161.515 10.7242L160.436 12.5214L160.428 12.5287Z" fill="url(#paint8_linear_272_26277)"/>
<path d="M163.502 9.52102L163.668 8.99925L166.118 8.42676L165.85 9.25289C165.77 9.49928 165.574 9.68045 165.32 9.73842L163.98 10.05C163.668 10.1225 163.393 9.82538 163.494 9.52102H163.502Z" fill="url(#paint9_linear_272_26277)"/>
<path d="M164.937 12.1161L165.205 11.29C165.285 11.0436 165.227 10.7827 165.06 10.587L163.676 9L163.415 9.81889C163.335 10.0653 163.393 10.3334 163.56 10.5291L164.944 12.1089L164.937 12.1161Z" fill="url(#paint10_linear_272_26277)"/>
<path d="M163.444 9.45593C163.444 9.66609 163.277 9.83276 163.067 9.83276C162.857 9.83276 162.69 9.66609 162.69 9.45593C162.69 9.24577 162.857 9.0791 163.067 9.0791C163.277 9.0791 163.444 9.24577 163.444 9.45593Z" fill="url(#paint11_radial_272_26277)"/>
<path d="M163.191 8.69519C163.191 8.90535 163.024 9.07202 162.814 9.07202C162.604 9.07202 162.437 8.90535 162.437 8.69519C162.437 8.48504 162.604 8.31836 162.814 8.31836C163.024 8.31836 163.191 8.48504 163.191 8.69519Z" fill="url(#paint12_radial_272_26277)"/>
<path d="M162.378 8.69519C162.378 8.90535 162.211 9.07202 162.001 9.07202C161.791 9.07202 161.625 8.90535 161.625 8.69519C161.625 8.48504 161.791 8.31836 162.001 8.31836C162.211 8.31836 162.378 8.48504 162.378 8.69519Z" fill="url(#paint13_radial_272_26277)"/>
<path d="M162.081 9.45593C162.081 9.66609 161.914 9.83276 161.704 9.83276C161.494 9.83276 161.327 9.66609 161.327 9.45593C161.327 9.24577 161.494 9.0791 161.704 9.0791C161.914 9.0791 162.081 9.24577 162.081 9.45593Z" fill="url(#paint14_radial_272_26277)"/>
<path d="M162.77 9.9491C162.77 10.1593 162.604 10.3259 162.393 10.3259C162.183 10.3259 162.017 10.1593 162.017 9.9491C162.017 9.73894 162.183 9.57227 162.393 9.57227C162.604 9.57227 162.77 9.73894 162.77 9.9491Z" fill="url(#paint15_radial_272_26277)"/>
<path d="M158.863 13.3488V13.7401C158.863 13.8995 158.798 14.001 158.653 14.0445L158.682 14.1024C158.899 14.0372 159.008 13.8995 159.008 13.6894V13.0879L158.827 13.1314L158.856 13.3415L158.863 13.3488Z" fill="#4D4D4F"/>
<path d="M159.204 12.9567V13.761H159.356V12.9494L159.371 12.7393L159.182 12.761L159.204 12.9567Z" fill="#4D4D4F"/>
<path d="M162.116 12.9861V13.4861C162.116 13.573 162.08 13.6165 162.008 13.6165H161.761H161.689C161.645 13.4933 161.58 13.3701 161.5 13.2614C161.392 13.1238 161.29 13.0513 161.189 13.0513C161.051 13.0513 160.95 13.1745 160.935 13.3846L161.095 13.3629C161.08 13.3194 161.073 13.2832 161.073 13.2542C161.073 13.1962 161.095 13.1672 161.138 13.1672C161.203 13.1672 161.276 13.2252 161.363 13.3412C161.428 13.4281 161.479 13.5223 161.515 13.6093H160.109V13.0658H159.884C159.776 13.0658 159.689 13.102 159.623 13.1745C159.558 13.2469 159.522 13.3339 159.522 13.4499C159.522 13.5441 159.551 13.6165 159.609 13.6745C159.66 13.7252 159.725 13.7542 159.812 13.7542H159.957C159.95 13.8919 159.877 13.9861 159.747 14.0441L159.776 14.1021C159.964 14.0513 160.073 13.9354 160.102 13.7542H160.848H161.761H162.044C162.182 13.7542 162.268 13.6673 162.268 13.5223V12.7324L162.087 12.7759L162.116 12.9861ZM159.942 13.6165H159.812C159.718 13.6165 159.667 13.5513 159.667 13.4281C159.667 13.2614 159.739 13.1672 159.863 13.1672H159.942V13.6165Z" fill="#4D4D4F"/>
<path d="M162.443 12.761L162.465 12.9567V13.761H162.617V12.9494L162.632 12.7393L162.443 12.761Z" fill="#4D4D4F"/>
<path d="M163.466 13.4208C163.517 13.4208 163.56 13.3774 163.56 13.3266C163.56 13.2687 163.517 13.2324 163.466 13.2324C163.415 13.2324 163.372 13.2759 163.372 13.3266C163.372 13.3846 163.415 13.4208 163.466 13.4208Z" fill="#939598"/>
<path d="M165.357 13.0732H165.074L165.212 12.9282L165.429 12.7471H165.212C165.118 12.8703 164.973 13.0224 164.792 13.2109H165.328C165.502 13.2109 165.589 13.2688 165.589 13.392V13.6239H164.038C163.966 13.6239 163.929 13.5732 163.929 13.4645V13.1022L163.748 13.1456L163.777 13.3558V13.6312C163.777 13.7471 163.748 13.8413 163.69 13.921C163.632 13.9863 163.567 14.0225 163.487 14.0225C163.299 14.0225 163.183 13.8703 163.183 13.6239V13.3413H163.031V13.6312C163.031 13.7834 163.067 13.8993 163.132 13.9863C163.205 14.0805 163.321 14.124 163.466 14.124C163.719 14.124 163.886 13.9863 163.922 13.7689C163.951 13.7761 163.973 13.7761 164.002 13.7761H164.103H165.734V13.3775C165.734 13.1964 165.596 13.0877 165.357 13.0877V13.0732Z" fill="#939598"/>
<path d="M165.958 13.1386L165.987 13.3488V13.7401C165.987 13.8995 165.914 14.001 165.777 14.0445L165.806 14.1024C166.023 14.0372 166.132 13.8995 166.132 13.6894V13.0879L165.951 13.1314L165.958 13.1386Z" fill="#939598"/>
<path style="mix-blend-mode:screen" d="M164.393 7.16567L162.595 7.92659C162.595 7.92659 162.784 7.99905 164.045 7.47004C164.4 7.3251 164.784 7.2309 165.067 7.38308C165.574 7.65121 165.849 7.71643 165.849 7.71643C165.4 7.39032 165.335 7.3396 165.241 7.27437C165.183 7.23089 164.864 6.94102 164.4 7.17292L164.393 7.16567Z" fill="url(#paint16_linear_272_26277)"/>
<path style="mix-blend-mode:screen" d="M159.56 9.75282L161.473 10.1659C161.473 10.1659 161.364 9.99921 160.024 9.70209C159.654 9.62237 159.285 9.47019 159.14 9.18757C158.879 8.68029 158.69 8.46289 158.69 8.46289C158.872 8.98466 158.893 9.06437 158.93 9.18032C158.951 9.24554 159.046 9.6731 159.56 9.75282Z" fill="url(#paint17_linear_272_26277)"/>
<path style="mix-blend-mode:screen" d="M161.03 6.71689L161.226 8.65903C161.226 8.65903 161.349 8.4996 161.218 7.13721C161.182 6.76037 161.211 6.3618 161.436 6.13715C161.842 5.73133 161.987 5.49219 161.987 5.49219C161.545 5.82554 161.479 5.87627 161.378 5.94149C161.32 5.97772 160.95 6.20237 161.03 6.71689Z" fill="url(#paint18_linear_272_26277)"/>
<path style="mix-blend-mode:screen" d="M161.951 12.1012L162.951 10.4199C162.951 10.4199 162.763 10.4707 162.053 11.6519C161.857 11.978 161.596 12.2823 161.284 12.3258C160.719 12.4128 160.458 12.5215 160.458 12.5215C161.009 12.5215 161.096 12.5215 161.212 12.5215C161.277 12.5215 161.712 12.5722 161.951 12.1084V12.1012Z" fill="url(#paint19_linear_272_26277)"/>
<path style="mix-blend-mode:screen" d="M164.995 10.5434L163.705 9.07227C163.705 9.07227 163.698 9.26793 164.596 10.3042C164.843 10.5941 165.053 10.9274 165.002 11.2463C164.908 11.8115 164.93 12.0942 164.93 12.0942C165.096 11.5652 165.125 11.4854 165.162 11.3767C165.183 11.3115 165.365 10.9129 164.995 10.5434Z" fill="url(#paint20_linear_272_26277)"/>
<defs>
<linearGradient id="paint0_linear_272_26277" x1="57.6194" y1="28.5005" x2="232.803" y2="28.5005" gradientUnits="userSpaceOnUse">
<stop stop-color="#9CB429"/>
<stop offset="0.19" stop-color="#A5B925"/>
<stop offset="0.51" stop-color="#BDC91A"/>
<stop offset="0.91" stop-color="#E5E208"/>
<stop offset="1" stop-color="#F0E904"/>
</linearGradient>
<linearGradient id="paint1_linear_272_26277" x1="162.994" y1="8.31822" x2="163.342" y2="5.49923" gradientUnits="userSpaceOnUse">
<stop stop-color="#2A4100"/>
<stop offset="0.14" stop-color="#3E570F"/>
<stop offset="1" stop-color="#87BA3E"/>
</linearGradient>
<linearGradient id="paint2_linear_272_26277" x1="163.589" y1="8.70289" x2="164.821" y2="6.94917" gradientUnits="userSpaceOnUse">
<stop stop-color="#72922C"/>
<stop offset="0.17" stop-color="#B1D13E"/>
<stop offset="1" stop-color="#72922C"/>
</linearGradient>
<linearGradient id="paint3_linear_272_26277" x1="158.886" y1="7.92041" x2="161.821" y2="7.92041" gradientUnits="userSpaceOnUse">
<stop stop-color="#0093CA"/>
<stop offset="0.81" stop-color="#005578"/>
<stop offset="1" stop-color="#004563"/>
</linearGradient>
<linearGradient id="paint4_linear_272_26277" x1="162.255" y1="7.95521" x2="160.958" y2="6.23773" gradientUnits="userSpaceOnUse">
<stop stop-color="#0079A7"/>
<stop offset="0.2" stop-color="#00B6F1"/>
<stop offset="1" stop-color="#0079A7"/>
</linearGradient>
<linearGradient id="paint5_linear_272_26277" x1="159.581" y1="10.7606" x2="161.531" y2="10.7606" gradientUnits="userSpaceOnUse">
<stop stop-color="#0C8376"/>
<stop offset="0.74" stop-color="#00413C"/>
<stop offset="0.97" stop-color="#001814"/>
</linearGradient>
<linearGradient id="paint6_linear_272_26277" x1="159.096" y1="9.68785" x2="161.103" y2="8.96318" gradientUnits="userSpaceOnUse">
<stop offset="0.1" stop-color="#0F7B74"/>
<stop offset="0.8" stop-color="#00B7A6"/>
<stop offset="1" stop-color="#0F7B74"/>
</linearGradient>
<linearGradient id="paint7_linear_272_26277" x1="163.147" y1="12.521" x2="163.219" y2="10.3832" gradientUnits="userSpaceOnUse">
<stop stop-color="#262626"/>
<stop offset="1" stop-color="#0A0A0A"/>
</linearGradient>
<linearGradient id="paint8_linear_272_26277" x1="161.718" y1="12.5287" x2="161.718" y2="10.3764" gradientUnits="userSpaceOnUse">
<stop stop-color="#6E6E6E"/>
<stop offset="0.78" stop-color="#CFCFCF"/>
<stop offset="1" stop-color="#6E6E6E"/>
</linearGradient>
<linearGradient id="paint9_linear_272_26277" x1="163.48" y1="9.24564" x2="166.125" y2="9.24564" gradientUnits="userSpaceOnUse">
<stop stop-color="#511900"/>
<stop offset="0.24" stop-color="#86371C"/>
<stop offset="1" stop-color="#F04C29"/>
</linearGradient>
<linearGradient id="paint10_linear_272_26277" x1="163.27" y1="10.2247" x2="165.335" y2="10.8914" gradientUnits="userSpaceOnUse">
<stop stop-color="#DF752C"/>
<stop offset="0.21" stop-color="#FBB217"/>
<stop offset="1" stop-color="#DF752C"/>
</linearGradient>
<radialGradient id="paint11_radial_272_26277" cx="0" cy="0" r="1" gradientUnits="userSpaceOnUse" gradientTransform="translate(163.067 9.45593) scale(0.376832)">
<stop stop-color="#F9A72E"/>
<stop offset="1" stop-color="#DF752C"/>
</radialGradient>
<radialGradient id="paint12_radial_272_26277" cx="0" cy="0" r="1" gradientUnits="userSpaceOnUse" gradientTransform="translate(162.814 8.69519) scale(0.376831 0.376832)">
<stop stop-color="#B1D13E"/>
<stop offset="1" stop-color="#72922C"/>
</radialGradient>
<radialGradient id="paint13_radial_272_26277" cx="0" cy="0" r="1" gradientUnits="userSpaceOnUse" gradientTransform="translate(162.001 8.69519) scale(0.376832)">
<stop stop-color="#00B6F1"/>
<stop offset="1" stop-color="#008ABD"/>
</radialGradient>
<radialGradient id="paint14_radial_272_26277" cx="0" cy="0" r="1" gradientUnits="userSpaceOnUse" gradientTransform="translate(161.704 9.45593) scale(0.376831)">
<stop offset="0.01" stop-color="#21A89D"/>
<stop offset="1" stop-color="#0F7B74"/>
</radialGradient>
<radialGradient id="paint15_radial_272_26277" cx="0" cy="0" r="1" gradientUnits="userSpaceOnUse" gradientTransform="translate(162.393 9.9491) scale(0.376831 0.376832)">
<stop stop-color="#C2C2C2"/>
<stop offset="1" stop-color="#6E6E6E"/>
</radialGradient>
<linearGradient id="paint16_linear_272_26277" x1="164.169" y1="8.11156" x2="164.332" y2="6.9736" gradientUnits="userSpaceOnUse">
<stop stop-color="#231F20"/>
<stop offset="0.36" stop-color="#242021"/>
<stop offset="0.5" stop-color="#2B2728"/>
<stop offset="0.6" stop-color="#373334"/>
<stop offset="0.68" stop-color="#484546"/>
<stop offset="0.76" stop-color="#5E5B5C"/>
<stop offset="0.82" stop-color="#797777"/>
<stop offset="0.88" stop-color="#9A9898"/>
<stop offset="0.93" stop-color="#BFBEBF"/>
<stop offset="0.98" stop-color="#E9E8E8"/>
<stop offset="1" stop-color="white"/>
</linearGradient>
<linearGradient id="paint17_linear_272_26277" x1="160.31" y1="9.00542" x2="159.522" y2="9.84226" gradientUnits="userSpaceOnUse">
<stop stop-color="#231F20"/>
<stop offset="0.36" stop-color="#242021"/>
<stop offset="0.5" stop-color="#2B2728"/>
<stop offset="0.6" stop-color="#373334"/>
<stop offset="0.68" stop-color="#484546"/>
<stop offset="0.76" stop-color="#5E5B5C"/>
<stop offset="0.82" stop-color="#797777"/>
<stop offset="0.88" stop-color="#9A9898"/>
<stop offset="0.93" stop-color="#BFBEBF"/>
<stop offset="0.98" stop-color="#E9E8E8"/>
<stop offset="1" stop-color="white"/>
</linearGradient>
<linearGradient id="paint18_linear_272_26277" x1="161.846" y1="7.35799" x2="160.807" y2="6.86587" gradientUnits="userSpaceOnUse">
<stop stop-color="#231F20"/>
<stop offset="0.36" stop-color="#242021"/>
<stop offset="0.5" stop-color="#2B2728"/>
<stop offset="0.6" stop-color="#373334"/>
<stop offset="0.68" stop-color="#484546"/>
<stop offset="0.76" stop-color="#5E5B5C"/>
<stop offset="0.82" stop-color="#797777"/>
<stop offset="0.88" stop-color="#9A9898"/>
<stop offset="0.93" stop-color="#BFBEBF"/>
<stop offset="0.98" stop-color="#E9E8E8"/>
<stop offset="1" stop-color="white"/>
</linearGradient>
<linearGradient id="paint19_linear_272_26277" x1="161.18" y1="11.4921" x2="161.724" y2="12.5124" gradientUnits="userSpaceOnUse">
<stop stop-color="#231F20"/>
<stop offset="0.36" stop-color="#242021"/>
<stop offset="0.5" stop-color="#2B2728"/>
<stop offset="0.6" stop-color="#373334"/>
<stop offset="0.68" stop-color="#484546"/>
<stop offset="0.76" stop-color="#5E5B5C"/>
<stop offset="0.82" stop-color="#797777"/>
<stop offset="0.88" stop-color="#9A9898"/>
<stop offset="0.93" stop-color="#BFBEBF"/>
<stop offset="0.98" stop-color="#E9E8E8"/>
<stop offset="1" stop-color="white"/>
</linearGradient>
<linearGradient id="paint20_linear_272_26277" x1="163.867" y1="10.9004" x2="164.998" y2="10.6974" gradientUnits="userSpaceOnUse">
<stop stop-color="#231F20"/>
<stop offset="0.36" stop-color="#242021"/>
<stop offset="0.5" stop-color="#2B2728"/>
<stop offset="0.6" stop-color="#373334"/>
<stop offset="0.68" stop-color="#484546"/>
<stop offset="0.76" stop-color="#5E5B5C"/>
<stop offset="0.82" stop-color="#797777"/>
<stop offset="0.88" stop-color="#9A9898"/>
<stop offset="0.93" stop-color="#BFBEBF"/>
<stop offset="0.98" stop-color="#E9E8E8"/>
<stop offset="1" stop-color="white"/>
</linearGradient>
</defs>
</svg>
