<svg width="28" height="27" viewBox="0 0 28 27" fill="none" xmlns="http://www.w3.org/2000/svg">
<path d="M10.3472 0.0136719V19.927H11.0166V1.39252H20.9233C21.7526 1.39252 22.427 2.08693 22.427 2.94621V23.6988C23.5611 23.1643 25.0249 22.1951 25.6294 21.5656V3.0811C25.6294 1.38752 24.3005 0.0136719 22.6618 0.0136719H10.3522H10.3472Z" fill="white"/>
<path d="M13.3998 16.5498H12.1909C12.061 16.5498 11.9561 16.6547 11.9561 16.7846C11.9561 16.9145 12.061 17.0194 12.1909 17.0194H13.3998C13.5297 17.0194 13.6346 16.9145 13.6346 16.7846C13.6346 16.6547 13.5297 16.5498 13.3998 16.5498Z" fill="white"/>
<path d="M13.5095 13.837C13.4195 13.7471 13.2697 13.7471 13.1797 13.837C13.0898 13.9269 13.0898 14.0768 13.1797 14.1667L14.034 15.021C14.124 15.1109 14.2738 15.1109 14.3638 15.021C14.4537 14.9311 14.4537 14.7812 14.3638 14.6913L13.5095 13.837Z" fill="white"/>
<path d="M19.0747 13.837C18.9848 13.7471 18.8349 13.7471 18.745 13.837L17.8907 14.6913C17.8008 14.7812 17.8008 14.9311 17.8907 15.021C17.9806 15.1109 18.1305 15.1109 18.2204 15.021L19.0747 14.1667C19.1646 14.0768 19.1646 13.9269 19.0747 13.837Z" fill="white"/>
<path d="M16.1269 12.6133C15.997 12.6133 15.8921 12.7182 15.8921 12.8481V14.0571C15.8921 14.187 15.997 14.2919 16.1269 14.2919C16.2568 14.2919 16.3617 14.187 16.3617 14.0571V12.8481C16.3617 12.7182 16.2568 12.6133 16.1269 12.6133Z" fill="white"/>
<path d="M20.0595 16.5498H18.8505C18.7206 16.5498 18.6157 16.6547 18.6157 16.7846C18.6157 16.9145 18.7206 17.0194 18.8505 17.0194H20.0595C20.1894 17.0194 20.2943 16.9145 20.2943 16.7846C20.2943 16.6547 20.1894 16.5498 20.0595 16.5498Z" fill="white"/>
<path d="M21.4426 24.0188C21.5025 23.5792 21.5425 23.0446 21.5425 22.7948V20.4368C21.5425 20.0122 21.1978 19.6674 20.7731 19.6674C20.3485 19.6674 20.0038 20.0122 20.0038 20.4368V20.167C20.0038 19.7424 19.6591 19.3977 19.2344 19.3977C18.8098 19.3977 18.4651 19.7424 18.4651 20.167V19.8973C18.4651 19.4726 18.1203 19.1279 17.6957 19.1279C17.2711 19.1279 16.9263 19.4726 16.9263 19.8973V16.3153C16.9263 15.8906 16.5816 15.5459 16.157 15.5459C15.7323 15.5459 15.3876 15.8906 15.3876 16.3153V20.8415C15.3876 21.346 15.1428 21.371 14.938 21.1662L14.6582 20.8864C13.4393 19.6674 12.2153 20.6166 12.515 20.9164L13.5142 21.9156C14.0138 22.4151 14.6632 22.9897 15.6224 24.1637C15.7823 24.3585 15.8922 24.6083 15.9671 24.8731C16.162 24.8831 16.3518 24.8881 16.5467 24.8881C18.2702 24.8881 19.9188 24.5783 21.4426 24.0188Z" fill="white"/>
<path d="M21.4432 24.4282C19.9195 24.9877 18.2659 25.2975 16.5473 25.2975C16.3525 25.2975 16.1627 25.2925 15.9678 25.2825C8.56902 24.9877 2.634 19.0327 2.35923 11.6289C2.35423 11.8088 2.34424 11.9836 2.34424 12.1635C2.34424 20.0069 8.70391 26.3666 16.5473 26.3666C19.9994 26.3666 23.1618 25.1326 25.6247 23.0843V22.0052C24.3908 23.0343 22.9769 23.8587 21.4432 24.4232V24.4282Z" fill="white"/>
<path d="M17.0513 5.04418L16.7466 4.81937L16.9064 3.09082L17.391 3.44552C17.5309 3.55043 17.6109 3.72029 17.5959 3.89515L17.5109 4.83935C17.491 5.05917 17.2362 5.17407 17.0563 5.04418H17.0513Z" fill="white"/>
<path d="M19.0548 4.6695L18.5702 4.3148C18.4303 4.20989 18.2404 4.18991 18.0806 4.25985L16.7417 4.82437L17.2213 5.17408C17.3662 5.27899 17.556 5.30397 17.7209 5.23403L19.0548 4.6745V4.6695Z" fill="white"/>
<path d="M16.1423 5.1436L15.8375 5.36841L14.2339 4.69897L14.7185 4.34427C14.8584 4.23936 15.0482 4.21937 15.2081 4.28432L16.0823 4.64901C16.2872 4.73394 16.3171 5.00871 16.1423 5.1436Z" fill="white"/>
<path d="M16.3872 3.11632L15.9026 3.47103C15.7627 3.57594 15.6828 3.7458 15.7027 3.92065L15.8376 5.36444L16.3172 5.00974C16.4621 4.90482 16.537 4.72997 16.5221 4.55012L16.3872 3.11133V3.11632Z" fill="white"/>
<path d="M15.9379 6.02345L16.0578 6.38315L14.9287 7.70204L14.7389 7.13252C14.6839 6.96766 14.7189 6.78281 14.8338 6.64792L15.4533 5.92853C15.5981 5.75867 15.8679 5.81362 15.9379 6.02345Z" fill="white"/>
<path d="M14.0841 5.16895L14.2839 5.75845C14.3339 5.91332 14.4638 6.02823 14.6186 6.0632L16.0574 6.38293L15.8676 5.8184C15.8126 5.64854 15.6678 5.52365 15.4929 5.48368L14.0791 5.16895H14.0841Z" fill="white"/>
<path d="M16.6971 6.50293H17.0768L17.966 7.99168H17.3665C17.1917 7.99168 17.0268 7.89676 16.9369 7.74689L16.4523 6.93257C16.3374 6.74273 16.4773 6.50293 16.6971 6.50293Z" fill="white"/>
<path d="M15.2979 7.9868H15.8973C16.0722 7.9868 16.2371 7.89688 16.327 7.74201L17.0764 6.49805H16.4819C16.302 6.49805 16.1371 6.59297 16.0472 6.74284L15.3028 7.9818L15.2979 7.9868Z" fill="white"/>
<path d="M17.4167 5.91355L17.5316 5.55385L19.2202 5.15918L19.0354 5.7287C18.9804 5.89856 18.8455 6.02346 18.6707 6.06342L17.7464 6.27824C17.5316 6.3282 17.3418 6.12337 17.4117 5.91355H17.4167Z" fill="white"/>
<path d="M18.4055 7.70191L18.5904 7.13239C18.6453 6.96253 18.6054 6.78268 18.4905 6.64779L17.5363 5.55371L17.3564 6.11824C17.3014 6.2881 17.3414 6.47294 17.4563 6.60783L18.4105 7.69691L18.4055 7.70191Z" fill="white"/>
<path d="M17.3765 5.86818C17.3765 6.01306 17.2616 6.12796 17.1167 6.12796C16.9718 6.12796 16.8569 6.01306 16.8569 5.86818C16.8569 5.7233 16.9718 5.6084 17.1167 5.6084C17.2616 5.6084 17.3765 5.7233 17.3765 5.86818Z" fill="white"/>
<path d="M17.2017 5.34474C17.2017 5.48962 17.0868 5.60453 16.9419 5.60453C16.797 5.60453 16.6821 5.48962 16.6821 5.34474C16.6821 5.19986 16.797 5.08496 16.9419 5.08496C17.0868 5.08496 17.2017 5.19986 17.2017 5.34474Z" fill="white"/>
<path d="M16.6421 5.34474C16.6421 5.48962 16.5272 5.60453 16.3823 5.60453C16.2375 5.60453 16.1226 5.48962 16.1226 5.34474C16.1226 5.19986 16.2375 5.08496 16.3823 5.08496C16.5272 5.08496 16.6421 5.19986 16.6421 5.34474Z" fill="white"/>
<path d="M16.437 5.86818C16.437 6.01306 16.3221 6.12796 16.1773 6.12796C16.0324 6.12796 15.9175 6.01306 15.9175 5.86818C15.9175 5.7233 16.0324 5.6084 16.1773 5.6084C16.3221 5.6084 16.437 5.7233 16.437 5.86818Z" fill="white"/>
<path d="M16.9121 6.20803C16.9121 6.35291 16.7972 6.46781 16.6524 6.46781C16.5075 6.46781 16.3926 6.35291 16.3926 6.20803C16.3926 6.06315 16.5075 5.94824 16.6524 5.94824C16.7972 5.94824 16.9121 6.06315 16.9121 6.20803Z" fill="white"/>
<path d="M14.2186 8.54997V8.81974C14.2186 8.92965 14.1736 8.99959 14.0737 9.02956L14.0937 9.06953C14.2436 9.02457 14.3185 8.92965 14.3185 8.78477V8.37012L14.1936 8.40009L14.2136 8.54497L14.2186 8.54997Z" fill="white"/>
<path d="M14.454 8.28073V8.83527H14.5589V8.27574L14.5689 8.13086L14.439 8.14585L14.454 8.28073Z" fill="white"/>
<path d="M16.4614 8.30083V8.64554C16.4614 8.70549 16.4364 8.73547 16.3864 8.73547H16.2166H16.1666C16.1366 8.65054 16.0917 8.56561 16.0367 8.49067C15.9618 8.39575 15.8918 8.34579 15.8219 8.34579C15.727 8.34579 15.657 8.43072 15.647 8.5756L15.7569 8.56061C15.747 8.53064 15.742 8.50566 15.742 8.48568C15.742 8.44571 15.7569 8.42572 15.7869 8.42572C15.8319 8.42572 15.8818 8.46569 15.9418 8.54563C15.9867 8.60558 16.0217 8.67052 16.0467 8.73047H15.0775V8.35578H14.9226C14.8477 8.35578 14.7878 8.38076 14.7428 8.43072C14.6978 8.48068 14.6729 8.54063 14.6729 8.62056C14.6729 8.68551 14.6928 8.73547 14.7328 8.77543C14.7678 8.8104 14.8127 8.83039 14.8727 8.83039H14.9726C14.9676 8.92531 14.9176 8.99025 14.8277 9.03022L14.8477 9.07019C14.9776 9.03521 15.0525 8.95528 15.0725 8.83039H15.5871H16.2166H16.4114C16.5063 8.83039 16.5663 8.77044 16.5663 8.67052V8.12598L16.4414 8.15595L16.4614 8.30083ZM14.9626 8.73547H14.8727C14.8077 8.73547 14.7728 8.6905 14.7728 8.60557C14.7728 8.49067 14.8227 8.42572 14.9077 8.42572H14.9626V8.73547Z" fill="white"/>
<path d="M16.6865 8.14585L16.7015 8.28073V8.83527H16.8064V8.27574L16.8164 8.13086L16.6865 8.14585Z" fill="white"/>
<path d="M17.3926 8.60157C17.4276 8.60157 17.4575 8.57159 17.4575 8.53662C17.4575 8.49666 17.4276 8.47168 17.3926 8.47168C17.3576 8.47168 17.3276 8.50165 17.3276 8.53662C17.3276 8.57659 17.3576 8.60157 17.3926 8.60157Z" fill="white"/>
<path d="M18.6959 8.36153H18.5011L18.596 8.26161L18.7459 8.13672H18.596C18.5311 8.22165 18.4312 8.32656 18.3063 8.45645H18.676C18.7959 8.45645 18.8558 8.49642 18.8558 8.58135V8.74121H17.7867C17.7367 8.74121 17.7118 8.70624 17.7118 8.6313V8.38151L17.5869 8.41149L17.6069 8.55637V8.7462C17.6069 8.82614 17.5869 8.89108 17.5469 8.94604C17.5069 8.991 17.462 9.01598 17.407 9.01598C17.2771 9.01598 17.1972 8.91107 17.1972 8.74121V8.54638H17.0923V8.7462C17.0923 8.85112 17.1173 8.93105 17.1622 8.991C17.2122 9.05595 17.2921 9.08592 17.392 9.08592C17.5669 9.08592 17.6818 8.991 17.7068 8.84113C17.7268 8.84612 17.7417 8.84612 17.7617 8.84612H17.8317H18.9557V8.57135C18.9557 8.44646 18.8608 8.37152 18.6959 8.37152V8.36153Z" fill="white"/>
<path d="M19.1102 8.40606L19.1302 8.55094V8.82072C19.1302 8.93063 19.0803 9.00057 18.9854 9.03054L19.0053 9.07051C19.1552 9.02555 19.2301 8.93063 19.2301 8.78575V8.37109L19.1053 8.40107L19.1102 8.40606Z" fill="white"/>
<g style="mix-blend-mode:screen">
<path d="M18.0305 4.28971L16.7915 4.81427C16.7915 4.81427 16.9214 4.86423 17.7907 4.49954C18.0355 4.39962 18.3002 4.33468 18.4951 4.43959C18.8448 4.62443 19.0346 4.6694 19.0346 4.6694C18.7249 4.44458 18.6799 4.40961 18.615 4.36465C18.575 4.33468 18.3552 4.13484 18.0355 4.29471L18.0305 4.28971Z" fill="white"/>
</g>
<g style="mix-blend-mode:screen">
<path d="M14.6991 6.07382L16.018 6.35859C16.018 6.35859 15.9431 6.24368 15.0188 6.03885C14.7641 5.9839 14.5093 5.87899 14.4093 5.68415C14.2295 5.33444 14.0996 5.18457 14.0996 5.18457C14.2245 5.54427 14.2395 5.59922 14.2645 5.67916C14.2795 5.72412 14.3444 6.01887 14.6991 6.07382Z" fill="white"/>
</g>
<g style="mix-blend-mode:screen">
<path d="M15.7123 3.98003L15.8472 5.31891C15.8472 5.31891 15.9321 5.20901 15.8422 4.26979C15.8172 4.01001 15.8372 3.73524 15.9921 3.58037C16.2718 3.3006 16.3718 3.13574 16.3718 3.13574C16.067 3.36555 16.0221 3.40052 15.9521 3.44548C15.9121 3.47046 15.6574 3.62533 15.7123 3.98003Z" fill="white"/>
</g>
<g style="mix-blend-mode:screen">
<path d="M16.3475 7.69224L17.0369 6.5332C17.0369 6.5332 16.907 6.56818 16.4174 7.38249C16.2826 7.60731 16.1027 7.81713 15.8879 7.8471C15.4982 7.90705 15.3184 7.98199 15.3184 7.98199C15.698 7.98199 15.758 7.98199 15.8379 7.98199C15.8829 7.98199 16.1826 8.01696 16.3475 7.69723V7.69224Z" fill="white"/>
</g>
<g style="mix-blend-mode:screen">
<path d="M18.4459 6.61864L17.5566 5.60449C17.5566 5.60449 17.5516 5.73938 18.1711 6.45378C18.341 6.65361 18.4859 6.88342 18.4509 7.10324C18.3859 7.49291 18.4009 7.68775 18.4009 7.68775C18.5158 7.32305 18.5358 7.2681 18.5608 7.19316C18.5758 7.1482 18.7007 6.87343 18.4459 6.61864Z" fill="white"/>
</g>
</svg>
